<?xml version="1.0" encoding="utf-8"?>
<!-- Generator: Adobe Illustrator 16.0.0, SVG Export Plug-In . SVG Version: 6.00 Build 0)  -->
<!DOCTYPE svg PUBLIC "-//W3C//DTD SVG 1.1//EN" "http://www.w3.org/Graphics/SVG/1.1/DTD/svg11.dtd">
<svg version="1.1" id="Layer_1" xmlns="http://www.w3.org/2000/svg" xmlns:xlink="http://www.w3.org/1999/xlink" x="0px" y="0px"
	 width="224.988px" height="259.787px" viewBox="0 0 224.988 259.787" enable-background="new 0 0 224.988 259.787"
	 xml:space="preserve">
<path fill="#0038B8" stroke="#FFFFFF" stroke-miterlimit="10" d="M111.493,255.787l36.255-62.792h72.512l-36.259-62.797
	l36.259-62.793h-22.513l-56.363,71.594l-16.354-38.241l-25.468,61.229l-17.779-51.729l-53.194,82.736h4.062h42.59L111.493,255.787
	L111.493,255.787z M197.747,67.405l-56.363,71.594l-16.354-38.241l-25.468,61.229l-17.779-51.729l-53.194,82.736H2.729
	l36.256-62.797L2.729,67.405h72.51l36.254-62.794l36.255,62.794h49.967H197.747L197.747,67.405z"/>
<g>
	<g>
		<g>
			<defs>
				<path id="SVGID_1_" d="M111.493,255.787l36.255-62.792h72.512l-36.259-62.797l36.259-62.793h-22.513l-56.363,71.594
					l-16.354-38.241l-25.468,61.229l-17.779-51.729l-53.194,82.736h4.062h42.59L111.493,255.787L111.493,255.787z M197.747,67.405
					l-56.363,71.594l-16.354-38.241l-25.468,61.229l-17.779-51.729l-53.194,82.736H2.729l36.256-62.797L2.729,67.405h72.51
					l36.254-62.794l36.255,62.794h49.967H197.747L197.747,67.405z"/>
			</defs>
			<clipPath id="SVGID_2_">
				<use xlink:href="#SVGID_1_"  overflow="visible"/>
			</clipPath>
			<path clip-path="url(#SVGID_2_)" fill="#000066" d="M95.559,86.402c0.459,0,0.289-0.7,0.93-0.52
				c0.856,0.336,1.349,1.092,2.542,1.041c0.786-0.62-1.109-1.15-0.459-1.553c0.347,0.132,0.585,0.383,0.923,0.513
				c0.182-0.894-0.259-1.092-0.465-1.554c1.912-0.112,1.283-2.722,0.938-4.144c0.564-0.21,1.235-0.336,2.072-0.254
				c-0.059-1.145-1.243-1.026-1.844-1.561c0.719,0.126,0.516-0.788,1.38-0.52c0.165-0.787-0.396-0.755-0.229-1.555
				c0.825,0.144,0.568-0.917,1.393-0.776c0.58-0.213,1.991,0.509,1.853-0.514c0.214-0.944-1.003-0.263-1.156-0.782
				c-0.546-0.076-0.438-0.896-1.157-0.776c-1.003-0.155-2.08,0.935-2.548,0.525c0.144-1.31,2.039-0.66,2.312-1.814
				c-0.479-0.753-1.498-0.908-2.781-0.78c-0.745-0.298-1.667-0.685-2.079,0c-0.193-0.38-0.738-0.375-1.153-0.524
				c-0.934,0.689-3.205-0.124-4.159,0.524c-1.071,0.027-2.354-0.208-2.789,0.522c-0.021,0.563,0.634,1.677,0.228,1.804
				c-1.67-0.293-2.613,0.18-4.152-0.257c-2.322,0.359-3.403,2.061-5.792,2.338c-0.218,0.934,1.04,0.207,0.917,1.04
				c-0.666,0.626-1.905,0.61-2.533,1.293c-0.571-0.336-1.321-0.284-1.626,0.773c0.74-0.224,0.717,0.408,1.156,0.511
				c-0.006-0.687,1.159-0.687,1.159,0c0.563-0.151,1.572-1.15,1.617,0.268c-0.987,0.104-2.379-0.253-3.012,0.259
				c0.212,0.969,1.088,1.193,1.857,1.546c0.715,0.19,0.438-0.71,1.154-0.514c0.704,0.512,1.419,1.005,2.778,0.78
				c-0.188,1.149,0.159,1.722,0.465,2.328c-0.077,0.606-0.366,0.978-0.23,1.812c0.923,0.506,1.067-1.19,1.624-0.251
				c0.126,0.923-0.701,0.786-1.394,0.771c0.195,1.162,1.761,0.8,2.078,1.815c-0.522,0.447-1.165,0.76-1.62,1.297
				c0.652,0.338-0.719,0.534-0.458,1.293c1.65,1.25,0.371,4.213,1.612,5.961c0.543,0,1.087,0,1.625,0
				c0.672,0.031,0.405,1.101,1.154,1.033c0.231-0.519,0.399-1.106,0.932-1.301c-0.281-1.952,1.154-1.978,0.928-3.882
				c0.594-0.02,0.324-1.006,0.917-1.034c0.886,0.525,0.886-0.615,1.857,0c0.368-0.355,0.727-0.733,1.159-1.03
				c1.118-0.313,1.61-1.312,2.771-1.556c0.096-0.935,2.044-1.16,1.391-2.075C97.178,87.515,96.205,86.478,95.559,86.402
				L95.559,86.402z M97.879,85.371c-0.621-0.463,0-1.712,0.693-1.551C98.455,84.457,97.951,84.677,97.879,85.371L97.879,85.371z
				 M99.495,72.93c-0.017,0.77-0.521,0.964-0.925,1.294c-0.707-0.503-1.753-0.617-3.011-0.52
				C96.343,72.638,98.513,73.092,99.495,72.93L99.495,72.93z"/>
		</g>
	</g>
	<g>
		<g>
			<defs>
				<path id="SVGID_3_" d="M111.493,255.787l36.255-62.792h72.512l-36.259-62.797l36.259-62.793h-22.513l-56.363,71.594
					l-16.354-38.241l-25.468,61.229l-17.779-51.729l-53.194,82.736h4.062h42.59L111.493,255.787L111.493,255.787z M197.747,67.405
					l-56.363,71.594l-16.354-38.241l-25.468,61.229l-17.779-51.729l-53.194,82.736H2.729l36.256-62.797L2.729,67.405h72.51
					l36.254-62.794l36.255,62.794h49.967H197.747L197.747,67.405z"/>
			</defs>
			<clipPath id="SVGID_4_">
				<use xlink:href="#SVGID_3_"  overflow="visible"/>
			</clipPath>
			<path clip-path="url(#SVGID_4_)" fill="#000066" d="M66.861,76.825c0,0.51,0,1.024,0,1.545c0.705-0.179,0.838,0.268,1.378,0.261
				c0.107-1.181,1.503-2.285,2.32-1.807c0.35,1.085-1.2,0.034-1.153,0.772c0.698,0.389-0.803,0.464-0.699,1.034
				c0.604-0.159,0.825,0.105,0.699,0.772c-0.546,0.01-0.685-0.447-1.394-0.25c0.033,0.734-0.778,0.505-0.462,1.553
				c1.383-0.202,2.38-0.36,3.009,0.77c-1.837,0.446-3.024-1.024-4.168-0.515c-0.185,1.248,1.4,0.508,1.396,1.563
				c1.746-0.281,4.088,1.148,4.625-0.783c0.604,0.079,0.993-0.097,0.925-0.78c0.172-0.703-1.081,0.192-0.925-0.516
				c0.533,0,1.085,0,1.624,0c-0.008-1.381,1.411-1.188,1.156-2.849c1.198-0.041,1.312-1.293,2.79-1.043
				c0.282-0.622,0.738-1.046,1.607-1.035c0.3-0.641-0.514-1.255,0-1.295c0.973-0.497,2.393,0.26,2.779-1.294
				c0-0.424-0.646-0.138-0.688-0.517c-3.791,0.576-8.957-0.753-12.975,1.035c-0.31,1.564,0.998,1.304,1.156,2.337
				c-1.504,0.133-1.047-1.942-2.769-1.561c-0.076,0.357-0.343,0.498-0.235,1.044c-0.374,0.018-0.804-0.042-0.697,0.517
				C65.962,76.614,66.767,76.321,66.861,76.825L66.861,76.825z M71.719,81.477c0.118,0.136-0.172,0.343-0.235,0.265
				C71.364,81.608,71.653,81.405,71.719,81.477L71.719,81.477z"/>
		</g>
	</g>
	<g>
		<g>
			<defs>
				<path id="SVGID_5_" d="M111.493,255.787l36.255-62.792h72.512l-36.259-62.797l36.259-62.793h-22.513l-56.363,71.594
					l-16.354-38.241l-25.468,61.229l-17.779-51.729l-53.194,82.736h4.062h42.59L111.493,255.787L111.493,255.787z M197.747,67.405
					l-56.363,71.594l-16.354-38.241l-25.468,61.229l-17.779-51.729l-53.194,82.736H2.729l36.256-62.797L2.729,67.405h72.51
					l36.254-62.794l36.255,62.794h49.967H197.747L197.747,67.405z"/>
			</defs>
			<clipPath id="SVGID_6_">
				<use xlink:href="#SVGID_5_"  overflow="visible"/>
			</clipPath>
			<path clip-path="url(#SVGID_6_)" fill="#000066" d="M123.801,76.296c0.12-0.727,1.213-0.374,0.93-1.55
				c-2.115-0.379-4.145-0.463-6.021-0.522c-0.019,0.46,0.055,0.814,0.229,1.044C120.398,75.791,121.597,76.607,123.801,76.296
				L123.801,76.296z"/>
		</g>
	</g>
	<g>
		<g>
			<defs>
				<path id="SVGID_7_" d="M111.493,255.787l36.255-62.792h72.512l-36.259-62.797l36.259-62.793h-22.513l-56.363,71.594
					l-16.354-38.241l-25.468,61.229l-17.779-51.729l-53.194,82.736h4.062h42.59L111.493,255.787L111.493,255.787z M197.747,67.405
					l-56.363,71.594l-16.354-38.241l-25.468,61.229l-17.779-51.729l-53.194,82.736H2.729l36.256-62.797L2.729,67.405h72.51
					l36.254-62.794l36.255,62.794h49.967H197.747L197.747,67.405z"/>
			</defs>
			<clipPath id="SVGID_8_">
				<use xlink:href="#SVGID_7_"  overflow="visible"/>
			</clipPath>
			<path clip-path="url(#SVGID_8_)" fill="#000066" d="M114.779,77.596c-0.028,0.64-0.434,0.802,0,1.295
				c0.953-0.055,0.986-1.147,2.075-1.042c-0.054,1.156-1.132,1.154-1.151,2.335c0.387,0.346,0.776,0.681,1.627,0.521
				c-0.113,0.81,0.484,0.828,1.151,0.771c0.203-0.972,0.405-1.952,0.693-2.845c0.609,0.689,0.967,1.688,2.551,1.299
				c0.205-1.975-1.225-2.095-1.853-3.105c-0.068,0.604-0.623-0.304-0.938-0.272c-0.563,0.046-0.95-0.13-1.14-0.51
				c0.539-0.691-0.195-1.521-1.169-1.297c-0.677,0.418,0.368,1.344-0.233,1.549c-0.488-1.228-2.7-2.443-2.781,0
				C113.722,77.049,114.612,76.91,114.779,77.596L114.779,77.596z"/>
		</g>
	</g>
	<g>
		<g>
			<defs>
				<path id="SVGID_9_" d="M111.493,255.787l36.255-62.792h72.512l-36.259-62.797l36.259-62.793h-22.513l-56.363,71.594
					l-16.354-38.241l-25.468,61.229l-17.779-51.729l-53.194,82.736h4.062h42.59L111.493,255.787L111.493,255.787z M197.747,67.405
					l-56.363,71.594l-16.354-38.241l-25.468,61.229l-17.779-51.729l-53.194,82.736H2.729l36.256-62.797L2.729,67.405h72.51
					l36.254-62.794l36.255,62.794h49.967H197.747L197.747,67.405z"/>
			</defs>
			<clipPath id="SVGID_10_">
				<use xlink:href="#SVGID_9_"  overflow="visible"/>
			</clipPath>
			<path clip-path="url(#SVGID_10_)" fill="#000066" d="M138.148,75.785c-0.021-1.638-2.151-1.079-2.077,0.258
				C136.861,76.85,137.29,75.683,138.148,75.785L138.148,75.785z"/>
		</g>
	</g>
	<g>
		<g>
			<defs>
				<path id="SVGID_11_" d="M111.493,255.787l36.255-62.792h72.512l-36.259-62.797l36.259-62.793h-22.513l-56.363,71.594
					l-16.354-38.241l-25.468,61.229l-17.779-51.729l-53.194,82.736h4.062h42.59L111.493,255.787L111.493,255.787z M197.747,67.405
					l-56.363,71.594l-16.354-38.241l-25.468,61.229l-17.779-51.729l-53.194,82.736H2.729l36.256-62.797L2.729,67.405h72.51
					l36.254-62.794l36.255,62.794h49.967H197.747L197.747,67.405z"/>
			</defs>
			<clipPath id="SVGID_12_">
				<use xlink:href="#SVGID_11_"  overflow="visible"/>
			</clipPath>
			<path clip-path="url(#SVGID_12_)" fill="#000066" d="M151.125,77.335c1.821-0.346,3.731,0.901,4.16-0.781
				c-0.546-1-2.662-1.423-3.928-0.769C150.838,75.816,151.245,76.874,151.125,77.335L151.125,77.335z"/>
		</g>
	</g>
	<g>
		<g>
			<defs>
				<path id="SVGID_13_" d="M111.493,255.787l36.255-62.792h72.512l-36.259-62.797l36.259-62.793h-22.513l-56.363,71.594
					l-16.354-38.241l-25.468,61.229l-17.779-51.729l-53.194,82.736h4.062h42.59L111.493,255.787L111.493,255.787z M197.747,67.405
					l-56.363,71.594l-16.354-38.241l-25.468,61.229l-17.779-51.729l-53.194,82.736H2.729l36.256-62.797L2.729,67.405h72.51
					l36.254-62.794l36.255,62.794h49.967H197.747L197.747,67.405z"/>
			</defs>
			<clipPath id="SVGID_14_">
				<use xlink:href="#SVGID_13_"  overflow="visible"/>
			</clipPath>
			<path clip-path="url(#SVGID_14_)" fill="#000066" d="M197.881,92.881c0.546-0.084,0.435-0.893,1.149-0.769
				c1.211,0.022,1.049,1.595,2.547,1.282c0.306-0.458-0.209-1.301,0.233-2.064c-0.612-0.315-1.514-1.702-2.076-0.521
				c0.071-0.601-0.042-0.994-0.229-1.294c-1.261-0.508-1.932-1.66-3.938-1.298c-0.268-0.481-0.895-0.551-1.158-1.037
				c-1.514,0.226-1.836-0.886-3.477-0.522c-0.323,0.762,0.638,1.328,0,1.56c-0.669-0.112-0.552-1.119-1.155-1.294
				c-0.68,0.802-1.928,0.077-3.261,0.521c-0.825-0.606-0.763-2.239-2.525-1.813c-0.337,0.059-0.078,0.772-0.473,0.772
				c-0.964-0.47-1.905-0.978-2.771-1.543c-0.104,0.225-0.203,0.45-0.461,0.51c0.291-1.018-0.553-0.773-1.163-0.773
				c0.572-0.615-0.252-0.586-0.453-1.043c-1.114,0.457-1.032-0.149-2.087-0.254c-0.081,0.345-0.589,0.213-0.926,0.254
				c-0.233,0.484,0.691,0.869,0,1.043c-1.991-0.352-4.517,0.461-6.261,0c-0.582-0.164-0.806-0.958-1.379-0.777
				c-1.073,0.273-1.786-0.27-2.556-0.52c-0.27-0.104-0.638,0.058-0.916,0c-0.58-0.123-1.02-0.825-2.313-0.53
				c0.085-0.663,0.681-0.779,0.687-1.546c-0.323-0.761-1.067-1.045-1.384-1.819c-0.699,0.347-1.771,0.273-2.782,0.268
				c-0.578-0.218-0.483-1.176-1.391-1.041c-0.542,0.262-0.736,0.894-0.693,1.814c-1.146-0.418-0.734,0.908-1.619,0.778
				c-0.442-0.107-0.188-1.007-0.925-0.778c-0.6,0.712-1.438,1.163-2.771,1.031c-0.41,0.334-0.612,0.879-1.39,0.786
				c-0.324,0.329-0.104,1.264-0.708,1.291c-0.476,0.165-1.599-0.42-1.373,0.518c0,0.952,1.349,0.38,1.152,1.56
				c-0.854-0.279-1.08-1.211-2.321-1.034c0,0.677,0.129,1.521-0.464,1.552c-0.27-0.308-0.27-0.924-0.231-1.552
				c-0.9-0.227-0.372,1.126-1.383,0.773c-0.361-0.463-0.315-1.383-1.392-1.041c-0.649,1.091-1.537,1.915-2.323,2.851
				c-1.5,0.124-1.387-0.484-3.002-0.521c-0.376,1.28,1.197,0.395,0.927,1.559c-0.97-0.251-2.007,0.131-3.478,0
				c-1.042,0.474-1.612,1.477-2.773,1.81c0-0.513,0-1.029,0-1.554c-0.574,0.042-1.116,0.046-1.387-0.257
				c0.059,1.45,0.012,2.77-1.39,2.592c0.075,0.957-0.852,0.774-1.39,1.037c-0.573,0.347,0.41,0.777-0.237,1.035
				c-1.354,0.305-1.432-1.876-1.381-2.325c1.07,0.007,2.257-0.114,3.008,0.254c0.617-1.624-1.301-2.462-2.782-2.592
				c-0.358-0.629-0.982-0.964-1.841-1.037c-0.324-0.602-0.656-1.16-1.166-1.549c-0.691,0-1.387,0-2.089,0
				c-0.626,0.49-1.218,1.05-1.837,1.549c-0.107-0.378-0.308,0.108-0.709,0c-0.826,0.981-1.861,1.711-2.77,2.6
				c-0.263,1.18-0.727,2.128-1.39,2.839c-0.046-0.3-0.428-0.213-0.698-0.254c0,0.341,0,0.688,0,1.028
				c-1.47,0.103-1.622,1.642-2.09,2.857c0.468,0.61,0.535,1.656,0.468,2.846c0.228,0.702,1.464,0.28,1.856,0.783
				c-0.507,0.764-0.93,1.048-0.93,1.816c0.495-0.123,0.438,0.362,0.462,0.778c-0.821,0.016-1.342,0.401-2.076,0.506
				c-0.212,0.47-0.656,0.667-0.472,1.563c-1.313-0.438-0.519,1.494-1.618,1.292c0.036,0.309-0.051,0.462-0.241,0.518
				c-1.018-0.113-1.219,0.702-1.854,1.044c-0.556,0.14-1.18,0.221-1.142,1.033c0.298,0.353,1.001,0.253,1.61,0.26
				c-0.109,1.17,1.072,0.876,0.934,2.076c-0.239,0.344-0.232,0.962-0.703,1.032c-1.076-0.619-2.037,0.232-3.466,0
				c-0.234,0.857,0.515,2.823-0.471,2.855c0.17,0.761,0.702,1.117,0.471,2.329c1.074-0.258,1.398,0.337,2.085,0.514
				c0.866-0.496,0.979-0.496,1.847,0c0.525-1.048,1.324-1.808,1.152-3.627c1.019-0.331,0.846-1.987,2.084-2.071
				c0.985,0.648,1.378-0.181,2.325-0.257c-0.655,1.006-0.323,2.625,0,3.887c1.466-0.148,0.556-1.468,0.689-2.854
				c-0.236-0.005-0.291-0.458,0-0.518c0,0.174,0,0.35,0,0.518c0.476,0.078,0.457,0.694,0.702,1.042
				c1.12,0.027,1.818,0.528,2.073,1.556c-0.039,0.56-0.578,0.549-1.163,0.508c-0.027,0.911,0.819,0.818,1.163,1.303
				c-0.11-1.166,0.623-1.376,1.156-1.811c0.13-0.584-0.438-0.371-0.466-0.788c0.43-0.809,0.786,0.876,1.175,0
				c-0.641-1.368-3.518-1.599-2.779-3.618c0.688,1.184,1.994,1.742,2.779,2.849c0.126,0.196,0.324,0.806,0.448,1.038
				c0.181,0.323,0.563,0.62,0.469,1.026c0,0.532,0,1.042,0,1.555c0.3,0.354,1.009,0.255,1.622,0.261
				c0.387-0.891-0.414-2.165,0.223-3.111c0.248,0,0.473,0,0.695,0c-0.26,1.022-0.039,0.967-0.225,2.067
				c0.52-0.09,0.311,0.751,0.691,1.044c0.842,0.662,2.388,0.458,3.007,0c0.692,0.377-0.602,1.347,0.458,1.301
				c0.957,0.191,0.053-1.677,1.17-1.301c0,0.521,0,1.044,0,1.551c-0.681,0.457-0.213,2.195-1.17,2.333
				c-1.684-0.691-3.781-0.934-6.021-1.03c-0.667,0.197-0.551,1.277-1.15,1.559c-1.063-1.232-3.172-1.299-4.157-2.593
				c0.179-0.898-0.266-1.101-0.468-1.56c0.542-0.072,0.528-0.694,0.228-1.034c-1.398-0.02-2.516,0.292-3.477,0.774
				c-1.875-0.123-3.505,0.038-4.402,1.044c-0.194-0.545-0.668-0.799-1.381-0.784c-0.19,0.913-1.021,1.097-1.614,1.559
				c-0.631,1.215-0.395,2.806-0.923,3.882c-0.347,0.685-1.589,1.385-2.092,2.077c-0.038,1.515-0.571,2.471-1.159,3.37
				c0,2.243,0,4.484,0,6.734c0.8,1.007,1.499,2.132,1.858,3.624c1.064,0.706,1.781,1.813,3.238,2.07
				c0.932-0.256,2.038-0.311,3.238-0.256c0.48-0.422,0.448-1.396,1.397-1.297c0.414,0.043,0.132,0.875,0.467,1.033
				c1.066-0.166,1.478,0.416,2.307,0.52c0.396-0.227,0.588-0.725,1.391-0.52c0.232,2.002-0.493,2.918-0.469,4.672
				c0.663,1.328,1.789,2.334,1.394,4.144c0.613,0.87,0.655,2.376,0.929,3.627c-0.573,1.178-0.442,3.121-0.929,4.399
				c0.992,1.057,1.708,2.408,2.094,4.148c0,0.782,0,1.555,0,2.332c1.023,1.348,1,3.874,2.076,5.186
				c2.227-0.183,3.339-1.604,5.328-2.072c0.349-1.424,1.051-2.439,2.072-3.111c-0.113-1.003,0.418-1.266,0.227-2.332
				c0.418-0.232,0.595-0.723,1.396-0.521c0.023-2.985,0.972-4.944,2.784-5.957c0.336-2.107,0.336-5.146,0-7.252
				c0.485-1.004,0.883-2.105,1.146-3.371c0.553-0.42,1.021-0.93,1.626-1.299c1.099-1.787,2.098-3.695,3.242-5.432
				c0.178-0.973,0.485-2.294-0.237-2.854c-0.988-0.157-0.935,0.848-1.843,0.777c-0.705,0-1.389,0-2.088,0
				c-0.108-1.773-1.264-2.39-2.09-3.367c0.205-1.703-1.375-1.396-0.923-3.375c-0.394-0.589-1.115-0.825-1.389-1.551
				c0.219-0.78-0.331-2.016,0-2.071c0.551,0.445,1.176,1.803,0.921,2.33c0.976,1.085,1.616,2.51,2.552,3.627
				c0.555,1.08,0.466,2.697,1.628,3.625c1.61-0.601,2.745-1.75,4.623-2.08c0.321-0.148,0.039-0.99,0.457-1.024
				c1.003-0.183,1.426-1.006,2.32-1.304c-0.167-1.129,0.678-1.15,0.698-2.066c-0.4-0.932-1.595-0.988-1.399-2.588
				c-0.876-0.127-1.472,0.073-1.848,0.507c-0.189-0.979-1.045-1.241-0.931-2.586c-0.749,0.066-0.666-0.797-1.148-1.036
				c0.344-0.138,0.581-0.376,0.925-0.52c1.279,0.894,0.896,3.656,3.242,3.371c0.097,0.499,0.656,0.477,0.457,1.297
				c1.123,0.127,1.287-0.803,2.322-0.774c0.235,0.163,0.24,0.587,0.692,0.519c1.608-0.269,2.011,0.854,2.993,1.288
				c-0.382-0.092-0.428,0.205-0.444,0.522c0.234,0.496,1.061,0.351,1.394,0.776c-0.125,0.816,0.41,0.913,0.216,1.813
				c0.705,0.86,1.003,2.168,1.394,3.369c0.489,0.495,0.968,0.993,1.169,1.809c0,0.522,0,1.043,0,1.563
				c0.291,0.358,1,0.248,1.613,0.255c0.308-1.654,1.135-2.703,0.921-4.925c0.317,0,0.62,0,0.933,0c0-0.347,0-0.688,0-1.042
				c0.871,0.387,0.446-0.701,1.15-0.509c-0.063-1.19,0.848-1.306,1.162-2.077c0.563-0.492,1.221-0.877,2.079-1.035
				c0.527,0.713,0.527,2.006,1.396,2.342c0.082,0.607-0.43,0.549-0.248,1.279c0.262,0.848,1.843,0.195,2.331,0.775
				c-0.313,0.55,0.112,0.771-0.239,1.563c0.604,0.271,1.03,0.742,1.157,1.555c-0.085,0.486-0.658,0.467-0.461,1.299
				c0.07,0.783,0.717,0.92,0.461,2.07c1.116,1.078,2.165,2.238,3.47,3.109c0.063-1.714-1.089-2.055-1.151-3.635
				c-0.646-0.495-1.259-1.01-1.621-1.813c0.104-0.841-0.309-2.234,0.46-2.332c0.507,0.735,0.871,1.631,1.866,1.813
				c0.17,0.238,0.241,0.582,0.217,1.035c2.25-0.332,2.796-2.572,2.545-5.694c-0.295-0.263-0.852-0.261-1.151-0.519
				c0.294-1.143-1.109-1.063-0.464-1.815c0.681-0.723,0.604,0.853,1.615,0.52c0.17-1.111,1.347-1.099,2.552-1.04
				c0.732-1.249,1.718-2.21,2.079-3.889c0.375,0.076,0.396-0.241,0.694-0.248c0.39-1.054-0.051-2.997,0.697-3.625
				c-0.491-0.238-0.697-0.77-0.697-1.568c-0.391-0.324-0.899-0.532-0.918-1.291c-0.104-0.622,0.427-0.566,0.224-1.292
				c0.479,0.079,0.729-0.053,0.694-0.532c0.663-0.327-1.04-1.546,0.47-1.546c0.261,0.827,1.062,1.044,1.392,1.816
				c-0.227,1.367,0.438,1.76,1.161,2.076c1.386-1.129-0.048-3.978,0.692-5.958c0.483-0.492,1.184-0.747,1.85-1.041
				c0.535-1.212,1.009-2.49,1.843-3.367c0.318-2.088-0.526-4.239,0-5.701c-0.314,1.479,0.534,1.653,0.698,2.59
				c0.046,1.607,0.113,3.158,1.162,3.624c0.433-0.458-0.188-0.656,0-1.546c0.631-0.03,0.468,0.432,0.925,0
				c0.039-0.823-0.616-0.879-0.457-1.823c-0.836-0.176-1.057-1.057-1.396-1.809c-0.085-0.934,0.085-2.166-0.688-2.334
				c-0.481,0.066-0.062,1.152-0.69,1.042c-0.395-1.907-1.969,1.191-2.561-0.777c0.16-0.604,0.589-0.893,0.935-1.294
				c0.267-0.827,0.174-2.042,0.928-2.343c0.532,0.64,0.423-0.38,1.146-0.256c1.093,0.173,2.103,0.679,3.482,0.524
				c-0.081,0.441,0.178,0.494,0.454,0.513c0.305-0.358,1.013-0.246,1.626-0.263c0.118-0.815-0.411-0.907-0.229-1.807
				c0.474-0.073,0.449-0.699,0.927-0.778c0.475,0.081,0.453,0.705,0.928,0.778c-0.109-0.569,0.688-1.429,0.915-0.778
				c-0.737,1.663-1.825,2.955-2.077,5.18c0.148,0.7,0.659,0.989,0.929,1.558c0.104,0.992,0.272,1.94,0.922,2.328
				c0.576-0.651,0.917-1.563,1.622-2.076c-0.213-1.282,0.74-1.093,0.244-2.065c0.058-0.525,0.61-0.513,0.687-1.037
				c-0.343-0.307-1.038-0.23-0.931-1.039c0.229-2.273,1.746-1.783,3.479-1.556c0.333-0.398,0.301-1.208,0.691-1.55
				c1.354-0.113,2.368-0.824,3.233-0.782C199.03,93.844,197.885,94.004,197.881,92.881L197.881,92.881z M120.105,95.733
				c0.435,0.541,1.049,0.886,1.841,1.037c0,0.861,0,1.728,0,2.591c-0.521-0.107,0.132-1.524-0.92-1.035
				c-0.511,0.894-0.188,2.716-0.921,3.37c-0.771,0.081-1.34-0.125-1.861,0c-0.644,0.146-0.779,0.749-1.39,0.776
				c0.076-0.317-0.662-0.896-0.688-0.262c-0.542-0.074-0.542-0.705,0-0.779c-0.526-0.62-0.89-1.429-0.929-2.592
				c1.155,0.112,0.713,3.65,2.779,2.592c0.52-1.052,0.879-2.294,1.382-3.374c-0.076-0.593-0.277-1.062-0.465-1.556
				c0.138-2.435,1.787-3.182,2.544-4.918c0.278-0.034,0.423,0.059,0.467,0.262C121.76,93.626,119.896,93.51,120.105,95.733
				L120.105,95.733z M122.648,97.545c-0.016-0.783,0.813-0.639,1.387-0.774C124.052,97.572,123.34,97.541,122.648,97.545
				L122.648,97.545z M124.498,87.443c-0.12-0.14,0.17-0.334,0.23-0.263C124.846,87.32,124.566,87.515,124.498,87.443L124.498,87.443
				z M128.67,124.758c-0.122-0.135,0.166-0.338,0.228-0.264C129.023,124.623,128.733,124.83,128.67,124.758L128.67,124.758z
				 M128.896,92.62c-0.12-0.133,0.163-0.328,0.229-0.254C129.244,92.499,128.961,92.694,128.896,92.62L128.896,92.62z
				 M146.022,88.475c-0.439-0.108-0.992-0.084-0.922-0.776c-0.694-0.051,0.216-1.077,0,0
				C145.263,88.114,146.228,87.641,146.022,88.475L146.022,88.475z M160.366,83.82c-0.11-0.132,0.177-0.344,0.248-0.266
				C160.738,83.692,160.438,83.888,160.366,83.82L160.366,83.82z M161.071,83.554c-0.116-0.133,0.167-0.328,0.229-0.254
				C161.418,83.421,161.139,83.627,161.071,83.554L161.071,83.554z M161.762,83.033c-0.116-0.131,0.17-0.334,0.236-0.263
				C162.117,82.916,161.83,83.102,161.762,83.033L161.762,83.033z M172.188,115.68c0.326-0.491,0.513-1.144,1.392-1.027
				c0.012,0.4-0.112,0.983,0.226,1.027C173.456,116.46,172.793,115.467,172.188,115.68L172.188,115.68z"/>
		</g>
	</g>
	<g>
		<g>
			<defs>
				<path id="SVGID_15_" d="M111.493,255.787l36.255-62.792h72.512l-36.259-62.797l36.259-62.793h-22.513l-56.363,71.594
					l-16.354-38.241l-25.468,61.229l-17.779-51.729l-53.194,82.736h4.062h42.59L111.493,255.787L111.493,255.787z M197.747,67.405
					l-56.363,71.594l-16.354-38.241l-25.468,61.229l-17.779-51.729l-53.194,82.736H2.729l36.256-62.797L2.729,67.405h72.51
					l36.254-62.794l36.255,62.794h49.967H197.747L197.747,67.405z"/>
			</defs>
			<clipPath id="SVGID_16_">
				<use xlink:href="#SVGID_15_"  overflow="visible"/>
			</clipPath>
			<path clip-path="url(#SVGID_16_)" fill="#000066" d="M90.005,146.263c-0.405-0.484-0.679,0.107-1.153,0.256
				c-0.365-0.889-1.266-1.186-2.077-1.563c-0.556,0-1.092,0-1.621,0c-0.417-0.748-1.966-0.223-2.087-1.287
				c-0.618,0-1.368,0.146-1.382-0.521c0.666-1.205-0.688-4.515-2.785-3.358c-0.73-0.481-1.266-1.177-1.386-2.341
				c-1.212-0.375-2.072-1.137-3.249-1.551c-0.302,0.096-0.361,0.453-0.691,0.518c-0.313-0.934-1.441-0.979-1.628-2.07
				c-0.738-0.23-0.478,0.665-0.919,0.778c-0.538-0.181-0.616-0.863-1.16-1.037c-0.209,0.451-0.421,0.896-1.156,0.776
				c-0.354,1.076-1.279,1.498-1.847,2.334c0.053-0.854-0.281-1.25-0.933-1.299c-0.597,0.272-0.858,0.932-1.631,1.033
				c-0.542-1.264,0.244-2.464,0-4.148c-0.418-0.896-1.951-0.557-2.768-1.028c0.229-1.131,0.901-1.751,0.696-3.368
				c-1.122,0.156-1.185,0.156-2.313,0c-0.426,0.559-0.222,1.819-0.929,2.064c-3.098,0.189-1.161-4.441-1.854-6.473
				c0.819-0.216,1.309-0.777,2.088-1.031c1.266-0.123,1.563,0.83,2.771,0.77c-0.019-0.364-0.048-0.726,0.235-0.77
				c1.111,0.061,2.604-0.332,2.774,0.77c-0.1,1.501,0.513,2.205,1.618,2.339c-0.277-1.335-0.153-1.741,0-2.596
				c-0.262-0.388-0.659-0.635-0.692-1.298c0.39-1.715,1.411-2.74,3.006-3.111c0.213-0.753,0.213-0.789,0-1.55
				c0.541,0.076,0.89-0.042,1.171-0.261c-0.578-1.421,0.752-1.108,0.455-2.852c0.771-0.347,1.504-0.721,2.31-1.032
				c0.122-0.814-0.702-0.588-0.459-1.554c0.848-0.783,2.132-1.075,3.252-1.555c0.161,0.702-0.47,0.523-0.47,1.035
				c0.926-0.432,1.908-0.796,2.551-1.551c-0.571-0.405-1.725-0.161-1.625-1.297c0.129-0.72,0.889-0.722,1.392-1.034
				c0.095-0.629-0.427-0.56-0.235-1.298c1.125,0.854,2.431-1.254,3.241-0.779c-0.534,1.388-1.639,2.136-2.082,3.624
				c0.856,0.188,0.997-0.44,1.845-0.252c0.022,0.401-0.103,0.986,0.237,1.037c0.229-0.641,0.887,0.355,1.62,0
				c-0.11-0.596-0.452-1.322,0-1.816c-0.845-0.089-1.061-0.887-1.392-1.558c0.08-1.604,0.08-1.744,0-3.372
				c-0.444-0.479-0.577-0.016-1.153,0c0.024-1.224-1.069-1.222-1.157-2.326c0.177-0.223,0.246-0.587,0.229-1.035
				c-0.893-0.569-0.569-2.488-1.856-2.595c-0.117,0.379,0.276,1.341-0.229,1.302c-0.478-0.155-1.521,0.324-1.622-0.269
				c0-0.859,0-1.72,0-2.584c-1.239,0.624-1.012-0.604-2.086-0.778c-0.608,0.712-0.499-0.303-1.15-0.255
				c-0.561-0.104-0.5,0.469-1.157,0.255c0.344,2.582-0.629,4.034-0.235,5.958c-0.395,0.076-1.153-0.733-1.391,0
				c0.23,0.74,0.771,0.167,0.931,0.517c-0.81,0.565-0.827,2.008-1.157,3.115c-0.527-0.794-0.634-2.065-0.921-3.115
				c-0.472-0.517-0.458,0.12-0.926,0.26c-0.2-0.749-0.345-0.281-0.935-0.26c-0.688-0.781-1.473-1.456-2.534-1.81
				c0.363-1.29-0.815-0.827-0.713-1.816c0.504,0.124,0.448-0.37,0.474-0.774c0.765-0.443,1.09-1.364,1.85-1.818
				c0.513-0.908,0.866-1.974,2.091-2.071c0.018-0.462-0.282-0.544-0.231-1.035c1.562-0.344,2.432-0.56,3.464-1.037
				c-0.05-1.002,0-1.914,0.235-2.592c-0.274-0.378-0.877-0.405-1.154-0.773c0.918-0.086,1.709-0.012,2.077,0.512
				c0.434-0.786,1.109,0.301,1.854,0c-0.321,1.32,1.058,0.72,0.927,1.823c-0.229,1.899-2.746,1.235-3.011,3.101
				c0.384,0.616,1.351,0.568,2.319,0.513c1.436,0.729,2.006,2.428,3.938,2.597c-0.52-1.341,0.388-1.305,0.231-2.848
				c-0.102-0.675-0.701-0.782-0.703-1.56c0.884,0.059,1.126,0.823,1.857,1.036c-0.066-0.674-0.084-1.29,0.692-1.036
				c-0.16-0.795,0.236-0.943,0.226-1.556c-0.625,0.183-0.438-0.531-0.69-0.774c-0.79-0.146-1.394-0.503-2.084-0.779
				c0.067-0.529,0.632-0.501,0.703-1.031c-0.297-0.622-1.019-0.77-0.937-1.813c-0.688,0-1.389,0-2.077,0
				c0.108-0.821-0.622-0.683-0.694-1.303c-0.987-0.147-1.531,0.189-2.315,0.269c0.139-1.606-1.828-1.097-2.087-0.269
				c0.087-0.964-0.184-1.517-0.925-1.559c-1.192,0.826-2.583,3.474-1.155,4.931c0.341,0.144,1.188-0.294,1.155,0.256
				c-0.248,0.762-0.729,1.249-1.155,1.823c-0.592-0.64,0.485-0.561,0.235-1.562c-0.792-0.581-1.543-1.215-1.858-2.335
				c-0.882,0.125-0.733-0.894-1.842-0.512c0.079,0.618-0.437,0.558-0.242,1.288c0.794,0.354,0.499,2.414,0,2.857
				c-0.341-0.225-0.5-0.649-0.451-1.298c-1.166-0.183-1.166,0.959-2.101,1.038c-0.859-0.413-1.804-0.734-2.308-1.555
				c1.034-0.196,1.394,0.345,2.308,0.256c0.514-0.536-0.104-0.741,0-1.553c1.284-0.292,1.794-1.452,3.005-1.807
				c-0.42-0.813-0.333-1.426-0.454-2.071c-1.164,0-2.313,0-3.465,0c-0.511,0.723-1.665,0.723-1.858,1.803
				c-0.118-0.382-0.339-0.64-0.459-1.029c-0.612-0.014-1.444,0.239-1.154-0.774c1.713,0.396,3.758-0.943,5.32-1.564
				c0,1.196,1.98,0.896,2.314,0.262c-0.162-0.591-0.208-1.316-0.455-1.82c-1.363,0.204-2.033,1.198-3.479,1.304
				c0-0.521,0-1.035,0-1.553c-1.267-0.479-1.492,1.22-0.69,1.553c-1.327,0.182-2.078-0.287-3.233-0.261
				c0.343,1.342-1.069,0.719-1.158,1.558c0.576,0.329,0.712-0.132,0.918,0.26c-0.147,0.344-0.496,0.481-0.918,0.508
				c-0.373-1.48-2.209-1.335-3.941-1.294c-0.122,1.257-0.713,1.969-1.393,2.595c-0.041,0.815,0.604,0.876,0.469,1.812
				c1.146,0.077,1.715-0.491,2.534-0.775c-0.472,1.404,1.271,0.312,1.396,1.041c0.165,0.701-1.09-0.188-0.931,0.511
				c-0.005,1.403,2.533-0.062,2.091,1.815c0.865-0.576,1.132-0.41,2.077,0c0.082,0,0.161,0,0.234,0
				c-0.073-0.313,0.666-0.891,0.693-0.257c-0.041,0.308-0.365,0.29-0.693,0.257c0.062,0.655,0.991,1.472,0,1.821
				c-0.273-0.053-0.188-0.479-0.234-0.779c-2.054-0.207-3.095-1.542-5.553-1.298c-0.708-0.242-0.728-1.256-1.615-1.294
				c-0.107,0.736-0.722,0.915-1.392,1.032c0.075-0.599-0.037-0.989-0.227-1.297c-0.894,0.06-0.894,1.1-1.852,1.041
				c-0.88,0.199-1.106-0.317-1.857-0.256c-0.257,0.063-0.15,0.513-0.462,0.513c-0.225-0.003-0.188-0.315-0.225-0.513
				c-0.557,0.084-0.878,0.409-1.631,0.256c-1.849-1.291-5.411-0.674-7.398-1.817c-1.729,0.847-3.978,1.087-5.093,1.297
				c-0.53,1.006,0.417,1.024,0.684,1.819c0.886-0.124,1.448,0.105,1.627,0.781c-0.938-0.361-0.832,0.458-1.162,0.777
				c-0.423-0.23-0.628-0.672-1.147-0.777c-0.881,0.999-2.997,0.626-3.71,1.804c1.275-0.044,1.729,0.83,1.854,2.085
				c1.229-0.497,2.149,0.069,3.243-0.276c-1.134,2.285-5.948,0.442-5.563,4.408c0.771,0.627,0.951,0.711,0.699,2.077
				c0.417,0.033,0.481-0.319,0.917-0.259c0.021,0.413-0.106,0.986,0.233,1.035c0.328-0.827,0.107,1.06,0.7,0.776
				c0.286-1.01,1.315-1.24,2.077-0.517c-0.998,0.872-1.36,2.443-2.537,3.109c-1.063,0.372-1.425,1.514-2.776,1.548
				c0.188,0.833-0.368,0.801-0.466,1.3c1.06,0.147,1.443-0.459,2.542-0.258c0.261-0.747,0.986-0.964,1.858-1.042
				c0.869-1.779,2.375-2.857,3.702-4.141c0.146,0,0.301,0,0.468,0c0.24-0.243,0.067-0.947,0.686-0.776
				c0.02-0.156,0.041-0.307,0.229-0.253c-0.015,0.154-0.027,0.306-0.229,0.253c0.102,1.159-0.619,1.371-0.924,2.073
				c1.904,0.236,2.365-1.14,3.938-1.297c0.104-1.162-0.121-1.947-0.231-2.854c1.063,0.244,1.123-0.644,2.072-0.521
				c0.649,0.503,1.184,1.104,1.63,1.822c1.472,0.522,2.729,1.271,2.545,3.626c1.119-0.169,0.052-1.436,0.935-1.559
				c0.055,2.194-0.073,4.557,0.685,5.962c-0.698,0.674-0.237,0.959,0,1.818c0,0.51-0.63,0.32-0.451,1.039
				c-0.112,2.838-0.267,4.743,0,7.51c0.613,0.428,1.021,1.099,1.613,1.557c0.637,1,0.59,2.778,1.385,3.624
				c-0.27,0.046-0.194,0.472-0.233,0.778c0.969,0.39,1.189,1.604,1.631,2.593c0.705-0.196,0.667,0.451,1.373,0.25
				c0.033-1.103-0.445-0.863-0.452-2.318c-0.133,0-0.262-0.221,0-0.265c0,0.089,0,0.181,0,0.265
				c0.489-0.133,0.432,0.366,0.452,0.771c0.728,0.581,1.353,1.269,1.86,2.074c-0.168,1.827,0.445,2.782,0.918,3.89
				c1.914,0.531,3.038,1.857,5.328,1.285c0.266,0.67,0.575,1.268,0.931,1.82c0.873-0.201,1.11,0.314,1.843,0.258
				c0.221,0.625,0.681,0.97,1.159,1.293c0,0.261,0,0.523,0,0.779c1.338,0.154,1.61,1.488,2.786,1.813
				c0.235-0.344,0.221-0.962,0.689-1.027c0.086,0.932,0.474,1.545,0.692,2.315c0,0.521-0.628,0.342-0.458,1.041
				c0.107,1.335-0.743,1.596-0.925,2.595c-0.449,1.811,0.931,2.796,0,3.628c0.404,0.492,1.141,0.613,1.622,1.042
				c-0.191,0.372-0.745,0.364-1.157,0.512c-0.168,2.088,0.852,2.848,2.083,3.377c0.092,0.621-0.429,0.559-0.233,1.293
				c0.862,0.756,1.172,2.135,2.552,2.332c0.422,1.156,1.151,1.979,1.147,3.627c-0.233,0.338-0.217,0.953-0.45,1.291
				c0.304,0.17,0.423,0.553,0.45,1.037c-0.621,1.166,0.277,2.525,0,4.146c-1.25,0.835-0.676,3.733-1.147,5.438
				c0.339,0.717,0.946-0.449,1.147,0.265c0.209,1.271-0.792,1.188-1.147,1.809c-0.295,0.843,0.734,0.202,0.455,1.044
				c-0.442,0.629,0.254,1.256-0.235,2.063c0.228,1.763,1.004,2.669,0.479,4.151c0.683,0.604,0.608,2.063,1.383,2.59
				c-0.032,0.461,0.271,0.545,0.226,1.033c0.584,0.135,0.96,0.489,1.389,0.774c0.868-0.158,2.388,0.431,2.542-0.521
				c-0.621-0.149-1.074-0.506-1.385-1.037c0.174-0.873-0.936-0.326-0.692-1.291c-0.08-1.135,0.669-1.332,0.692-2.332
				c0.602-0.033,0.898-0.375,0.934-1.032c0.117-0.919-0.817-0.632-0.696-1.558c0.622-0.799,1.573-3.359,0-3.629
				c1.55,0.438,1.498-0.9,1.848-1.809c1.247,0.09,1.674-0.73,2.554-1.039c0.15-1.21-0.372-1.667-0.469-2.585
				c0.619,0,1.231,0,1.854,0c0.013-0.263,0.284-0.21,0.467-0.271c0.127-0.631,0.198-1.328,0.926-1.293
				c-0.083-1.469,0.875-1.779,1.385-2.597c0-0.601,0-1.204,0-1.805c0.441-0.462,0.723-1.099,1.153-1.562
				c1.105-0.363,1.105-0.363,2.085-0.775c0.105-1.663,1.229-3.104,0.465-4.924c0.353-0.219,0.503-0.653,0.464-1.301
				c0.374,0.086,0.402-0.236,0.697-0.25c0.087-0.857,0.683-1.146,0.929-1.811c0.613-0.678-0.033-1.252,0.685-1.559
				c-0.158-0.799,0.235-0.953,0.235-1.563C90.476,147.625,90.231,146.946,90.005,146.263L90.005,146.263z M79.359,103.251
				c0.114,0.133-0.169,0.323-0.234,0.254C79.007,103.371,79.292,103.167,79.359,103.251L79.359,103.251z M61.531,83.033
				c0.711,0.253-0.255,0.698-0.238,1.038C60.594,83.822,61.403,83.196,61.531,83.033L61.531,83.033z M60.605,84.329
				c0.732-0.119,0.816,0.479,1.622,0.269c0,1.027-0.907,1.061-1.622,1.286C60.605,85.371,60.605,84.859,60.605,84.329L60.605,84.329
				z M53.438,84.859c-0.126-0.142,0.148-0.343,0.22-0.262C53.779,84.728,53.499,84.921,53.438,84.859L53.438,84.859z
				 M48.572,122.157c0.044-0.294,0.225-0.137,0.225,0C48.76,122.459,48.572,122.306,48.572,122.157L48.572,122.157z M48.796,122.678
				c0.553,0.087,0.525,0.806,0.93,1.035C49.433,124.367,48.598,123.435,48.796,122.678L48.796,122.678z"/>
		</g>
	</g>
	<g>
		<g>
			<defs>
				<path id="SVGID_17_" d="M111.493,255.787l36.255-62.792h72.512l-36.259-62.797l36.259-62.793h-22.513l-56.363,71.594
					l-16.354-38.241l-25.468,61.229l-17.779-51.729l-53.194,82.736h4.062h42.59L111.493,255.787L111.493,255.787z M197.747,67.405
					l-56.363,71.594l-16.354-38.241l-25.468,61.229l-17.779-51.729l-53.194,82.736H2.729l36.256-62.797L2.729,67.405h72.51
					l36.254-62.794l36.255,62.794h49.967H197.747L197.747,67.405z"/>
			</defs>
			<clipPath id="SVGID_18_">
				<use xlink:href="#SVGID_17_"  overflow="visible"/>
			</clipPath>
			<path clip-path="url(#SVGID_18_)" fill="#000066" d="M137.24,86.923c-0.34-1.191-1.427-1.522-1.169-3.37
				c1.638-0.158,2.247-1.459,3.469-2.077c1.464,0.168,2.204-0.462,2.331-1.805c-0.41,0-0.778,0-1.169,0
				c-0.056,0.202-0.002,0.513-0.236,0.513c-1.73,0.214-3.027,0.932-4.395,1.558c0.118,1.33-1.12,1.173-0.927,2.586
				c-0.288,0.553-0.866,0.761-0.918,1.554c0.734,0.547,1.46,1.127,2.302,1.561C136.631,87.116,136.833,86.908,137.24,86.923
				L137.24,86.923z"/>
		</g>
	</g>
	<g>
		<g>
			<defs>
				<path id="SVGID_19_" d="M111.493,255.787l36.255-62.792h72.512l-36.259-62.797l36.259-62.793h-22.513l-56.363,71.594
					l-16.354-38.241l-25.468,61.229l-17.779-51.729l-53.194,82.736h4.062h42.59L111.493,255.787L111.493,255.787z M197.747,67.405
					l-56.363,71.594l-16.354-38.241l-25.468,61.229l-17.779-51.729l-53.194,82.736H2.729l36.256-62.797L2.729,67.405h72.51
					l36.254-62.794l36.255,62.794h49.967H197.747L197.747,67.405z"/>
			</defs>
			<clipPath id="SVGID_20_">
				<use xlink:href="#SVGID_19_"  overflow="visible"/>
			</clipPath>
			<path clip-path="url(#SVGID_20_)" fill="#000066" d="M175.887,82.263c0.557-0.418,0.827-1.146,1.396-1.557
				c-0.883-0.127-1.07-1.192-1.86-1.034c-0.101,0.014-0.217,0.608-0.461,0.513c-0.453,0-0.933,0-1.383,0
				C173.272,82.073,175.231,81.435,175.887,82.263L175.887,82.263z"/>
		</g>
	</g>
	<g>
		<g>
			<defs>
				<path id="SVGID_21_" d="M111.493,255.787l36.255-62.792h72.512l-36.259-62.797l36.259-62.793h-22.513l-56.363,71.594
					l-16.354-38.241l-25.468,61.229l-17.779-51.729l-53.194,82.736h4.062h42.59L111.493,255.787L111.493,255.787z M197.747,67.405
					l-56.363,71.594l-16.354-38.241l-25.468,61.229l-17.779-51.729l-53.194,82.736H2.729l36.256-62.797L2.729,67.405h72.51
					l36.254-62.794l36.255,62.794h49.967H197.747L197.747,67.405z"/>
			</defs>
			<clipPath id="SVGID_22_">
				<use xlink:href="#SVGID_21_"  overflow="visible"/>
			</clipPath>
			<path clip-path="url(#SVGID_22_)" fill="#000066" d="M102.041,93.916c0.027-0.659,0.864-0.407,1.16-0.772
				c0.246-1.315-0.526-1.486-0.461-2.588c-1.003,0.345-1.363-0.164-2.315,0.254c-0.63-0.161-0.582-1.083-1.394-1.03
				c0.285,1.253-0.919,0.865-0.919,1.804c0.646,0.217,0.598-0.361,1.146-0.254c-0.118,0.626-0.889,0.555-0.687,1.551
				c1.159-0.341,0.907,0.895,1.625,1.035C100.387,93.383,101.805,93.649,102.041,93.916L102.041,93.916z"/>
		</g>
	</g>
	<g>
		<g>
			<defs>
				<path id="SVGID_23_" d="M111.493,255.787l36.255-62.792h72.512l-36.259-62.797l36.259-62.793h-22.513l-56.363,71.594
					l-16.354-38.241l-25.468,61.229l-17.779-51.729l-53.194,82.736h4.062h42.59L111.493,255.787L111.493,255.787z M197.747,67.405
					l-56.363,71.594l-16.354-38.241l-25.468,61.229l-17.779-51.729l-53.194,82.736H2.729l36.256-62.797L2.729,67.405h72.51
					l36.254-62.794l36.255,62.794h49.967H197.747L197.747,67.405z"/>
			</defs>
			<clipPath id="SVGID_24_">
				<use xlink:href="#SVGID_23_"  overflow="visible"/>
			</clipPath>
			<path clip-path="url(#SVGID_24_)" fill="#000066" d="M70.325,93.916c-0.918-0.274-0.313-0.654-0.918-1.296
				c-0.703,0.189-0.685-0.442-1.393-0.254c-0.328,0.498-0.121,1.58-1.153,1.305c0.014,0.903,0.759,1.034,1.613,1.025
				C68.398,92.67,70.053,95.545,70.325,93.916L70.325,93.916z"/>
		</g>
	</g>
	<g>
		<g>
			<defs>
				<path id="SVGID_25_" d="M111.493,255.787l36.255-62.792h72.512l-36.259-62.797l36.259-62.793h-22.513l-56.363,71.594
					l-16.354-38.241l-25.468,61.229l-17.779-51.729l-53.194,82.736h4.062h42.59L111.493,255.787L111.493,255.787z M197.747,67.405
					l-56.363,71.594l-16.354-38.241l-25.468,61.229l-17.779-51.729l-53.194,82.736H2.729l36.256-62.797L2.729,67.405h72.51
					l36.254-62.794l36.255,62.794h49.967H197.747L197.747,67.405z"/>
			</defs>
			<clipPath id="SVGID_26_">
				<use xlink:href="#SVGID_25_"  overflow="visible"/>
			</clipPath>
			<path clip-path="url(#SVGID_26_)" fill="#000066" d="M111.083,103.251c-0.32-0.271-0.714-0.432-0.938-0.778
				c0.289-1.535-1.534-1.779-0.691-3.111c-0.312-0.266-0.703-0.428-0.933-0.784c0.335-0.219,0.734-0.379,0.697-1.032
				c-0.849-0.082-1.293,0.292-1.847,0.513c0.172,1.414-0.365,2.016-0.231,3.374c0.559,0.373,0.848,0.406,1.148,0.517
				c0.096,0.918-0.779,1.425-1.148,1.032c-0.183,1.167,0.158,1.734,0.464,2.338c-0.406,0.24-1.242-0.016-1.165,0.779
				c1.148-0.188,2.311-0.354,3.708-0.264C110.335,104.724,110.208,103.992,111.083,103.251L111.083,103.251z"/>
		</g>
	</g>
	<g>
		<g>
			<defs>
				<path id="SVGID_27_" d="M111.493,255.787l36.255-62.792h72.512l-36.259-62.797l36.259-62.793h-22.513l-56.363,71.594
					l-16.354-38.241l-25.468,61.229l-17.779-51.729l-53.194,82.736h4.062h42.59L111.493,255.787L111.493,255.787z M197.747,67.405
					l-56.363,71.594l-16.354-38.241l-25.468,61.229l-17.779-51.729l-53.194,82.736H2.729l36.256-62.797L2.729,67.405h72.51
					l36.254-62.794l36.255,62.794h49.967H197.747L197.747,67.405z"/>
			</defs>
			<clipPath id="SVGID_28_">
				<use xlink:href="#SVGID_27_"  overflow="visible"/>
			</clipPath>
			<path clip-path="url(#SVGID_28_)" fill="#000066" d="M104.812,104.287c0.535-0.277,1.408-0.171,1.857-0.523
				c-0.245-1.082-0.055-1.144,0-2.333c-0.38,0-0.771,0-1.152,0c-0.015,1.158-0.527,0.327-0.926,0.779
				C104.621,102.958,104.464,103.901,104.812,104.287L104.812,104.287z"/>
		</g>
	</g>
	<g>
		<g>
			<defs>
				<path id="SVGID_29_" d="M111.493,255.787l36.255-62.792h72.512l-36.259-62.797l36.259-62.793h-22.513l-56.363,71.594
					l-16.354-38.241l-25.468,61.229l-17.779-51.729l-53.194,82.736h4.062h42.59L111.493,255.787L111.493,255.787z M197.747,67.405
					l-56.363,71.594l-16.354-38.241l-25.468,61.229l-17.779-51.729l-53.194,82.736H2.729l36.256-62.797L2.729,67.405h72.51
					l36.254-62.794l36.255,62.794h49.967H197.747L197.747,67.405z"/>
			</defs>
			<clipPath id="SVGID_30_">
				<use xlink:href="#SVGID_29_"  overflow="visible"/>
			</clipPath>
			<path clip-path="url(#SVGID_30_)" fill="#000066" d="M184.215,111.797c0.445,0.033,0.166,0.855,0.701,0.776
				c0.51-0.635,0.434-1.93,1.386-2.068c-1.212-0.194-1.975-0.901-3.238-1.038c0.17,1.231-0.258,1.779-0.232,2.856
				C183.463,113.018,183.406,111.653,184.215,111.797L184.215,111.797z"/>
		</g>
	</g>
	<g>
		<g>
			<defs>
				<path id="SVGID_31_" d="M111.493,255.787l36.255-62.792h72.512l-36.259-62.797l36.259-62.793h-22.513l-56.363,71.594
					l-16.354-38.241l-25.468,61.229l-17.779-51.729l-53.194,82.736h4.062h42.59L111.493,255.787L111.493,255.787z M197.747,67.405
					l-56.363,71.594l-16.354-38.241l-25.468,61.229l-17.779-51.729l-53.194,82.736H2.729l36.256-62.797L2.729,67.405h72.51
					l36.254-62.794l36.255,62.794h49.967H197.747L197.747,67.405z"/>
			</defs>
			<clipPath id="SVGID_32_">
				<use xlink:href="#SVGID_31_"  overflow="visible"/>
			</clipPath>
			<path clip-path="url(#SVGID_32_)" fill="#000066" d="M178.899,119.833c-0.043,0.911,0.545,1.111,0.925,1.545
				c0.159-0.939,0.722-1.434,1.392-1.813c0.311-0.004,0.5,0.127,0.688,0.267c0.729-0.998,2.266-1.096,3.009-2.077
				c-0.039-1.848-0.511-3.236-0.457-5.183c-0.313,0-0.627,0-0.937,0c0.287,1.214-0.116,1.808,0.239,3.107
				c-0.184,0.063-0.265,0.22-0.239,0.53c-0.829,0.395-1.235,0.696-2.079,1.546c-0.814,0.476-2.285,0.197-2.314,1.559
				c-0.104,0.715,1.264-0.201,1.163,0.519C179.824,119.833,179.359,119.833,178.899,119.833L178.899,119.833z"/>
		</g>
	</g>
	<g>
		<g>
			<defs>
				<path id="SVGID_33_" d="M111.493,255.787l36.255-62.792h72.512l-36.259-62.797l36.259-62.793h-22.513l-56.363,71.594
					l-16.354-38.241l-25.468,61.229l-17.779-51.729l-53.194,82.736h4.062h42.59L111.493,255.787L111.493,255.787z M197.747,67.405
					l-56.363,71.594l-16.354-38.241l-25.468,61.229l-17.779-51.729l-53.194,82.736H2.729l36.256-62.797L2.729,67.405h72.51
					l36.254-62.794l36.255,62.794h49.967H197.747L197.747,67.405z"/>
			</defs>
			<clipPath id="SVGID_34_">
				<use xlink:href="#SVGID_33_"  overflow="visible"/>
			</clipPath>
			<path clip-path="url(#SVGID_34_)" fill="#000066" d="M122.414,117.756c0.068,0.725,0.771,0.209,1.383,0.784
				c0.17-0.969-0.354-1.147-1.146-1.044C122.688,117.712,122.553,117.741,122.414,117.756L122.414,117.756z"/>
		</g>
	</g>
	<g>
		<g>
			<defs>
				<path id="SVGID_35_" d="M111.493,255.787l36.255-62.792h72.512l-36.259-62.797l36.259-62.793h-22.513l-56.363,71.594
					l-16.354-38.241l-25.468,61.229l-17.779-51.729l-53.194,82.736h4.062h42.59L111.493,255.787L111.493,255.787z M197.747,67.405
					l-56.363,71.594l-16.354-38.241l-25.468,61.229l-17.779-51.729l-53.194,82.736H2.729l36.256-62.797L2.729,67.405h72.51
					l36.254-62.794l36.255,62.794h49.967H197.747L197.747,67.405z"/>
			</defs>
			<clipPath id="SVGID_36_">
				<use xlink:href="#SVGID_35_"  overflow="visible"/>
			</clipPath>
			<path clip-path="url(#SVGID_36_)" fill="#000066" d="M174.029,126.571c0.375,0.361,0.6,0.884,0.695,1.551
				c0.964-0.06,0.886-1.268,0.935-2.329C175.082,125.217,174.279,125.976,174.029,126.571L174.029,126.571z"/>
		</g>
	</g>
	<g>
		<g>
			<defs>
				<path id="SVGID_37_" d="M111.493,255.787l36.255-62.792h72.512l-36.259-62.797l36.259-62.793h-22.513l-56.363,71.594
					l-16.354-38.241l-25.468,61.229l-17.779-51.729l-53.194,82.736h4.062h42.59L111.493,255.787L111.493,255.787z M197.747,67.405
					l-56.363,71.594l-16.354-38.241l-25.468,61.229l-17.779-51.729l-53.194,82.736H2.729l36.256-62.797L2.729,67.405h72.51
					l36.254-62.794l36.255,62.794h49.967H197.747L197.747,67.405z"/>
			</defs>
			<clipPath id="SVGID_38_">
				<use xlink:href="#SVGID_37_"  overflow="visible"/>
			</clipPath>
			<path clip-path="url(#SVGID_38_)" fill="#000066" d="M66.861,125.793c0,0.343,0,0.682,0,1.033c0.306,0,0.611,0,0.926,0
				C67.758,126.175,67.452,125.821,66.861,125.793L66.861,125.793z"/>
		</g>
	</g>
	<g>
		<g>
			<defs>
				<path id="SVGID_39_" d="M111.493,255.787l36.255-62.792h72.512l-36.259-62.797l36.259-62.793h-22.513l-56.363,71.594
					l-16.354-38.241l-25.468,61.229l-17.779-51.729l-53.194,82.736h4.062h42.59L111.493,255.787L111.493,255.787z M197.747,67.405
					l-56.363,71.594l-16.354-38.241l-25.468,61.229l-17.779-51.729l-53.194,82.736H2.729l36.256-62.797L2.729,67.405h72.51
					l36.254-62.794l36.255,62.794h49.967H197.747L197.747,67.405z"/>
			</defs>
			<clipPath id="SVGID_40_">
				<use xlink:href="#SVGID_39_"  overflow="visible"/>
			</clipPath>
			<path clip-path="url(#SVGID_40_)" fill="#000066" d="M69.407,127.077c0.068-0.592-0.035-0.986-0.235-1.284
				c-0.236,0-0.463,0-0.696,0C68.387,126.676,68.544,127.269,69.407,127.077L69.407,127.077z"/>
		</g>
	</g>
	<g>
		<g>
			<defs>
				<path id="SVGID_41_" d="M111.493,255.787l36.255-62.792h72.512l-36.259-62.797l36.259-62.793h-22.513l-56.363,71.594
					l-16.354-38.241l-25.468,61.229l-17.779-51.729l-53.194,82.736h4.062h42.59L111.493,255.787L111.493,255.787z M197.747,67.405
					l-56.363,71.594l-16.354-38.241l-25.468,61.229l-17.779-51.729l-53.194,82.736H2.729l36.256-62.797L2.729,67.405h72.51
					l36.254-62.794l36.255,62.794h49.967H197.747L197.747,67.405z"/>
			</defs>
			<clipPath id="SVGID_42_">
				<use xlink:href="#SVGID_41_"  overflow="visible"/>
			</clipPath>
			<path clip-path="url(#SVGID_42_)" fill="#000066" d="M69.632,126.826c0,0.432,0,0.859,0,1.296
				c0.485,0.104,0.618-0.177,0.929-0.265C70.532,127.203,70.226,126.854,69.632,126.826L69.632,126.826z"/>
		</g>
	</g>
	<g>
		<g>
			<defs>
				<path id="SVGID_43_" d="M111.493,255.787l36.255-62.792h72.512l-36.259-62.797l36.259-62.793h-22.513l-56.363,71.594
					l-16.354-38.241l-25.468,61.229l-17.779-51.729l-53.194,82.736h4.062h42.59L111.493,255.787L111.493,255.787z M197.747,67.405
					l-56.363,71.594l-16.354-38.241l-25.468,61.229l-17.779-51.729l-53.194,82.736H2.729l36.256-62.797L2.729,67.405h72.51
					l36.254-62.794l36.255,62.794h49.967H197.747L197.747,67.405z"/>
			</defs>
			<clipPath id="SVGID_44_">
				<use xlink:href="#SVGID_43_"  overflow="visible"/>
			</clipPath>
			<path clip-path="url(#SVGID_44_)" fill="#000066" d="M69.172,130.972c0.831-0.15,1.121,0.299,1.629,0.521
				c0.02-0.748,0.958-0.471,1.611-0.521c-0.333-1.717-1.611-1.479-3.005-1.557c0.17-0.706-0.473-0.521-0.473-1.033
				c-0.501-0.292-1.271-0.308-1.384-1.036c-1.158,0-2.313,0-3.464,0c-0.103,0.492-0.503,0.648-0.47,1.298
				c0.943,0.102,0.938-0.854,2.086-0.521c0.977,0.214,1.083,1.386,2.084,1.555c0.551,0.16,1.676-0.328,1.845,0.258
				C68.787,129.961,69.054,130.31,69.172,130.972L69.172,130.972z"/>
		</g>
	</g>
	<g>
		<g>
			<defs>
				<path id="SVGID_45_" d="M111.493,255.787l36.255-62.792h72.512l-36.259-62.797l36.259-62.793h-22.513l-56.363,71.594
					l-16.354-38.241l-25.468,61.229l-17.779-51.729l-53.194,82.736h4.062h42.59L111.493,255.787L111.493,255.787z M197.747,67.405
					l-56.363,71.594l-16.354-38.241l-25.468,61.229l-17.779-51.729l-53.194,82.736H2.729l36.256-62.797L2.729,67.405h72.51
					l36.254-62.794l36.255,62.794h49.967H197.747L197.747,67.405z"/>
			</defs>
			<clipPath id="SVGID_46_">
				<use xlink:href="#SVGID_45_"  overflow="visible"/>
			</clipPath>
			<path clip-path="url(#SVGID_46_)" fill="#000066" d="M71.484,128.122c-0.073-0.354-0.577-0.217-0.924-0.265
				C70.071,128.817,71.739,129.029,71.484,128.122L71.484,128.122z"/>
		</g>
	</g>
	<g>
		<g>
			<defs>
				<path id="SVGID_47_" d="M111.493,255.787l36.255-62.792h72.512l-36.259-62.797l36.259-62.793h-22.513l-56.363,71.594
					l-16.354-38.241l-25.468,61.229l-17.779-51.729l-53.194,82.736h4.062h42.59L111.493,255.787L111.493,255.787z M197.747,67.405
					l-56.363,71.594l-16.354-38.241l-25.468,61.229l-17.779-51.729l-53.194,82.736H2.729l36.256-62.797L2.729,67.405h72.51
					l36.254-62.794l36.255,62.794h49.967H197.747L197.747,67.405z"/>
			</defs>
			<clipPath id="SVGID_48_">
				<use xlink:href="#SVGID_47_"  overflow="visible"/>
			</clipPath>
			<path clip-path="url(#SVGID_48_)" fill="#000066" d="M174.962,130.972c0.36,0.631,0.825,1.15,1.391,1.553
				c0.291-0.805,1.077-1.035,0.933-2.331C176.652,129.255,174.931,129.682,174.962,130.972L174.962,130.972z"/>
		</g>
	</g>
	<g>
		<g>
			<defs>
				<path id="SVGID_49_" d="M111.493,255.787l36.255-62.792h72.512l-36.259-62.797l36.259-62.793h-22.513l-56.363,71.594
					l-16.354-38.241l-25.468,61.229l-17.779-51.729l-53.194,82.736h4.062h42.59L111.493,255.787L111.493,255.787z M197.747,67.405
					l-56.363,71.594l-16.354-38.241l-25.468,61.229l-17.779-51.729l-53.194,82.736H2.729l36.256-62.797L2.729,67.405h72.51
					l36.254-62.794l36.255,62.794h49.967H197.747L197.747,67.405z"/>
			</defs>
			<clipPath id="SVGID_50_">
				<use xlink:href="#SVGID_49_"  overflow="visible"/>
			</clipPath>
			<path clip-path="url(#SVGID_50_)" fill="#000066" d="M169.398,131.75c0.656-0.147,0.656-1.008,0.932-1.557
				c-0.205-0.201-0.52-0.275-0.932-0.259C168.97,130.946,169.101,130.149,169.398,131.75L169.398,131.75z"/>
		</g>
	</g>
	<g>
		<g>
			<defs>
				<path id="SVGID_51_" d="M111.493,255.787l36.255-62.792h72.512l-36.259-62.797l36.259-62.793h-22.513l-56.363,71.594
					l-16.354-38.241l-25.468,61.229l-17.779-51.729l-53.194,82.736h4.062h42.59L111.493,255.787L111.493,255.787z M197.747,67.405
					l-56.363,71.594l-16.354-38.241l-25.468,61.229l-17.779-51.729l-53.194,82.736H2.729l36.256-62.797L2.729,67.405h72.51
					l36.254-62.794l36.255,62.794h49.967H197.747L197.747,67.405z"/>
			</defs>
			<clipPath id="SVGID_52_">
				<use xlink:href="#SVGID_51_"  overflow="visible"/>
			</clipPath>
			<path clip-path="url(#SVGID_52_)" fill="#000066" d="M66.621,130.446c0,0.354,0,0.697,0,1.046
				c0.78-0.276,0.798,0.083,1.618-0.259C68.398,130.196,67.365,130.492,66.621,130.446L66.621,130.446z"/>
		</g>
	</g>
	<g>
		<g>
			<defs>
				<path id="SVGID_53_" d="M111.493,255.787l36.255-62.792h72.512l-36.259-62.797l36.259-62.793h-22.513l-56.363,71.594
					l-16.354-38.241l-25.468,61.229l-17.779-51.729l-53.194,82.736h4.062h42.59L111.493,255.787L111.493,255.787z M197.747,67.405
					l-56.363,71.594l-16.354-38.241l-25.468,61.229l-17.779-51.729l-53.194,82.736H2.729l36.256-62.797L2.729,67.405h72.51
					l36.254-62.794l36.255,62.794h49.967H197.747L197.747,67.405z"/>
			</defs>
			<clipPath id="SVGID_54_">
				<use xlink:href="#SVGID_53_"  overflow="visible"/>
			</clipPath>
			<path clip-path="url(#SVGID_54_)" fill="#000066" d="M72.869,131.492c0.837,0.063,1.608,0.057,1.396-1.046
				c-0.467,0-0.927,0-1.396,0C72.869,130.802,72.869,131.144,72.869,131.492L72.869,131.492z"/>
		</g>
	</g>
	<g>
		<g>
			<defs>
				<path id="SVGID_55_" d="M111.493,255.787l36.255-62.792h72.512l-36.259-62.797l36.259-62.793h-22.513l-56.363,71.594
					l-16.354-38.241l-25.468,61.229l-17.779-51.729l-53.194,82.736h4.062h42.59L111.493,255.787L111.493,255.787z M197.747,67.405
					l-56.363,71.594l-16.354-38.241l-25.468,61.229l-17.779-51.729l-53.194,82.736H2.729l36.256-62.797L2.729,67.405h72.51
					l36.254-62.794l36.255,62.794h49.967H197.747L197.747,67.405z"/>
			</defs>
			<clipPath id="SVGID_56_">
				<use xlink:href="#SVGID_55_"  overflow="visible"/>
			</clipPath>
			<path clip-path="url(#SVGID_56_)" fill="#000066" d="M97.178,131.492c0,0.509-0.63,0.329-0.454,1.032c0.309,0,0.607,0,0.919,0
				C97.71,131.933,97.58,131.549,97.178,131.492L97.178,131.492z"/>
		</g>
	</g>
	<g>
		<g>
			<defs>
				<path id="SVGID_57_" d="M111.493,255.787l36.255-62.792h72.512l-36.259-62.797l36.259-62.793h-22.513l-56.363,71.594
					l-16.354-38.241l-25.468,61.229l-17.779-51.729l-53.194,82.736h4.062h42.59L111.493,255.787L111.493,255.787z M197.747,67.405
					l-56.363,71.594l-16.354-38.241l-25.468,61.229l-17.779-51.729l-53.194,82.736H2.729l36.256-62.797L2.729,67.405h72.51
					l36.254-62.794l36.255,62.794h49.967H197.747L197.747,67.405z"/>
			</defs>
			<clipPath id="SVGID_58_">
				<use xlink:href="#SVGID_57_"  overflow="visible"/>
			</clipPath>
			<path clip-path="url(#SVGID_58_)" fill="#000066" d="M176.819,135.638c0.478,0.557,0.651-0.134,1.382,0
				c-0.075,0.604-0.497,1.119,0.237,1.291c0.325-0.757,0.972-1.154,2.076-1.033c0.22-1.192-0.736-1.072-1.155-1.555
				c0.06-0.849-0.273-1.252-0.921-1.297c-0.326,0.336-0.231,1.123-0.237,1.814C177.428,134.417,177.198,135.015,176.819,135.638
				L176.819,135.638z"/>
		</g>
	</g>
	<g>
		<g>
			<defs>
				<path id="SVGID_59_" d="M111.493,255.787l36.255-62.792h72.512l-36.259-62.797l36.259-62.793h-22.513l-56.363,71.594
					l-16.354-38.241l-25.468,61.229l-17.779-51.729l-53.194,82.736h4.062h42.59L111.493,255.787L111.493,255.787z M197.747,67.405
					l-56.363,71.594l-16.354-38.241l-25.468,61.229l-17.779-51.729l-53.194,82.736H2.729l36.256-62.797L2.729,67.405h72.51
					l36.254-62.794l36.255,62.794h49.967H197.747L197.747,67.405z"/>
			</defs>
			<clipPath id="SVGID_60_">
				<use xlink:href="#SVGID_59_"  overflow="visible"/>
			</clipPath>
			<path clip-path="url(#SVGID_60_)" fill="#000066" d="M153.893,136.411c0.333,1.533-0.879,1.85,0,2.591
				c0.729,0.124,0.614-0.696,1.162-0.776C154.862,137.403,154.381,136.903,153.893,136.411L153.893,136.411z"/>
		</g>
	</g>
	<g>
		<g>
			<defs>
				<path id="SVGID_61_" d="M111.493,255.787l36.255-62.792h72.512l-36.259-62.797l36.259-62.793h-22.513l-56.363,71.594
					l-16.354-38.241l-25.468,61.229l-17.779-51.729l-53.194,82.736h4.062h42.59L111.493,255.787L111.493,255.787z M197.747,67.405
					l-56.363,71.594l-16.354-38.241l-25.468,61.229l-17.779-51.729l-53.194,82.736H2.729l36.256-62.797L2.729,67.405h72.51
					l36.254-62.794l36.255,62.794h49.967H197.747L197.747,67.405z"/>
			</defs>
			<clipPath id="SVGID_62_">
				<use xlink:href="#SVGID_61_"  overflow="visible"/>
			</clipPath>
			<path clip-path="url(#SVGID_62_)" fill="#000066" d="M169.176,143.413c0.225,1.041,1.232,1.205,1.154,2.586
				c1.503-0.389,1.273,1.162,2.775,0.773c-0.064-0.594,0.667-0.285,0.695-0.773c-0.173-0.061-0.455-0.01-0.455-0.266
				c0.759-0.355,0.38-1.978,1.161-2.32c-0.53-0.842,0.19-1.725-0.239-2.342c0.401-0.229,0.801-0.475,0.692-1.286
				c-0.56-0.493-1.011-1.113-2.084-1.042C172.662,141.446,169.586,140.927,169.176,143.413L169.176,143.413z"/>
		</g>
	</g>
	<g>
		<g>
			<defs>
				<path id="SVGID_63_" d="M111.493,255.787l36.255-62.792h72.512l-36.259-62.797l36.259-62.793h-22.513l-56.363,71.594
					l-16.354-38.241l-25.468,61.229l-17.779-51.729l-53.194,82.736h4.062h42.59L111.493,255.787L111.493,255.787z M197.747,67.405
					l-56.363,71.594l-16.354-38.241l-25.468,61.229l-17.779-51.729l-53.194,82.736H2.729l36.256-62.797L2.729,67.405h72.51
					l36.254-62.794l36.255,62.794h49.967H197.747L197.747,67.405z"/>
			</defs>
			<clipPath id="SVGID_64_">
				<use xlink:href="#SVGID_63_"  overflow="visible"/>
			</clipPath>
			<path clip-path="url(#SVGID_64_)" fill="#000066" d="M164.771,141.59c-0.35-0.603-1.081-1.019-0.914-1.802
				c-0.635,0.179-0.474-0.523-0.935-0.523c0.033,1.144-0.563-0.029-1.16,0.256c0,3.025,3.257,2.412,2.786,5.959
				c1.14,0.143,1.458,1.849,2.535,1.293c0.535-0.987-0.476-2.123-0.445-3.357C165.929,142.88,165.096,142.142,164.771,141.59
				L164.771,141.59z"/>
		</g>
	</g>
	<g>
		<g>
			<defs>
				<path id="SVGID_65_" d="M111.493,255.787l36.255-62.792h72.512l-36.259-62.797l36.259-62.793h-22.513l-56.363,71.594
					l-16.354-38.241l-25.468,61.229l-17.779-51.729l-53.194,82.736h4.062h42.59L111.493,255.787L111.493,255.787z M197.747,67.405
					l-56.363,71.594l-16.354-38.241l-25.468,61.229l-17.779-51.729l-53.194,82.736H2.729l36.256-62.797L2.729,67.405h72.51
					l36.254-62.794l36.255,62.794h49.967H197.747L197.747,67.405z"/>
			</defs>
			<clipPath id="SVGID_66_">
				<use xlink:href="#SVGID_65_"  overflow="visible"/>
			</clipPath>
			<path clip-path="url(#SVGID_66_)" fill="#000066" d="M177.746,143.667c-0.048-1.15-1.464-0.787-1.857-1.553
				c-1.188,1.066-2.015,3.949-0.229,4.916c-0.049-0.745,0.054-1.318,0.461-1.553c0.511,0.498,0.542,1.317,1.389,0.783
				c-0.117-1.082-0.892-1.433-0.924-2.596C176.89,144.005,177.428,144.005,177.746,143.667L177.746,143.667z"/>
		</g>
	</g>
	<g>
		<g>
			<defs>
				<path id="SVGID_67_" d="M111.493,255.787l36.255-62.792h72.512l-36.259-62.797l36.259-62.793h-22.513l-56.363,71.594
					l-16.354-38.241l-25.468,61.229l-17.779-51.729l-53.194,82.736h4.062h42.59L111.493,255.787L111.493,255.787z M197.747,67.405
					l-56.363,71.594l-16.354-38.241l-25.468,61.229l-17.779-51.729l-53.194,82.736H2.729l36.256-62.797L2.729,67.405h72.51
					l36.254-62.794l36.255,62.794h49.967H197.747L197.747,67.405z"/>
			</defs>
			<clipPath id="SVGID_68_">
				<use xlink:href="#SVGID_67_"  overflow="visible"/>
			</clipPath>
			<path clip-path="url(#SVGID_68_)" fill="#000066" d="M182.829,142.627c-0.755-0.524-2.602-0.424-2.541,0.786
				C181.082,143.965,182.772,143.707,182.829,142.627L182.829,142.627z"/>
		</g>
	</g>
	<g>
		<g>
			<defs>
				<path id="SVGID_69_" d="M111.493,255.787l36.255-62.792h72.512l-36.259-62.797l36.259-62.793h-22.513l-56.363,71.594
					l-16.354-38.241l-25.468,61.229l-17.779-51.729l-53.194,82.736h4.062h42.59L111.493,255.787L111.493,255.787z M197.747,67.405
					l-56.363,71.594l-16.354-38.241l-25.468,61.229l-17.779-51.729l-53.194,82.736H2.729l36.256-62.797L2.729,67.405h72.51
					l36.254-62.794l36.255,62.794h49.967H197.747L197.747,67.405z"/>
			</defs>
			<clipPath id="SVGID_70_">
				<use xlink:href="#SVGID_69_"  overflow="visible"/>
			</clipPath>
			<path clip-path="url(#SVGID_70_)" fill="#000066" d="M185.38,143.667c-0.546,0-1.08,0-1.62,0
				c-0.203,0.378-0.347,0.826-0.931,0.779c-0.716,0.193-0.433-0.725-1.146-0.525c0.065,0.684-0.914,0.212-0.698,1.033
				c0.028,0.587,0.574-0.322,1.146,0c1.031,0.934,2.386,1.492,3.249,2.598c0,0.52,0,1.034,0,1.557
				c1.237-0.84,1.608,0.529,2.551,0.775c0.81-0.037,0.555-1.279,1.616-1.037c0.543,0.354,1.155,1.975,2.08,1.037
				c-0.479-0.229-0.705-0.768-0.692-1.547c-0.606-0.623-1.456-0.956-1.852-1.818c0-0.256,0-0.52,0-0.783
				C187.301,145.663,186.814,144.138,185.38,143.667L185.38,143.667z"/>
		</g>
	</g>
	<g>
		<g>
			<defs>
				<path id="SVGID_71_" d="M111.493,255.787l36.255-62.792h72.512l-36.259-62.797l36.259-62.793h-22.513l-56.363,71.594
					l-16.354-38.241l-25.468,61.229l-17.779-51.729l-53.194,82.736h4.062h42.59L111.493,255.787L111.493,255.787z M197.747,67.405
					l-56.363,71.594l-16.354-38.241l-25.468,61.229l-17.779-51.729l-53.194,82.736H2.729l36.256-62.797L2.729,67.405h72.51
					l36.254-62.794l36.255,62.794h49.967H197.747L197.747,67.405z"/>
			</defs>
			<clipPath id="SVGID_72_">
				<use xlink:href="#SVGID_71_"  overflow="visible"/>
			</clipPath>
			<path clip-path="url(#SVGID_72_)" fill="#000066" d="M173.105,149.627c0.13-0.917-0.811-0.64-0.688-1.558
				c-1.889,0.056-3.229-0.537-4.634-1.039c-0.202,0.461-0.646,0.664-0.454,1.556C169.533,148.614,170.585,149.952,173.105,149.627
				L173.105,149.627z"/>
		</g>
	</g>
	<g>
		<g>
			<defs>
				<path id="SVGID_73_" d="M111.493,255.787l36.255-62.792h72.512l-36.259-62.797l36.259-62.793h-22.513l-56.363,71.594
					l-16.354-38.241l-25.468,61.229l-17.779-51.729l-53.194,82.736h4.062h42.59L111.493,255.787L111.493,255.787z M197.747,67.405
					l-56.363,71.594l-16.354-38.241l-25.468,61.229l-17.779-51.729l-53.194,82.736H2.729l36.256-62.797L2.729,67.405h72.51
					l36.254-62.794l36.255,62.794h49.967H197.747L197.747,67.405z"/>
			</defs>
			<clipPath id="SVGID_74_">
				<use xlink:href="#SVGID_73_"  overflow="visible"/>
			</clipPath>
			<path clip-path="url(#SVGID_74_)" fill="#000066" d="M190.231,159.731c0.095-1.224-0.401-1.783-0.229-3.114
				c-0.454-0.173-0.526-0.778-0.918-1.031c-0.086-1.983-1.656-2.296-1.394-4.665c-0.434,0.057-0.507-0.288-0.922-0.263
				c-0.6,1.065,0.248,3.743-0.704,4.407c-0.911,0.34-0.469-0.854-1.391-0.521c-0.034-0.727-1.092-0.314-0.919-1.291
				c-0.118-0.818,1.144-0.096,0.919-1.027c-0.805-1.006-3.175-0.264-4.391-0.783c-0.404,0.158,0.01,1.227-0.464,1.291
				c-0.865,0.166-1.627,0.416-2.315,0.781c-0.289,0.785-0.081,2.158-0.924,2.334c-0.55-0.613-1.145,0.037-1.858,0
				c-0.449,0.18,0.056,1.447-0.453,1.547c-0.479-0.143-0.453-0.775-0.928-0.252c-0.575,0.646-0.305,2.244-1.156,2.59
				c-0.52,0.371-1.548,0.172-1.857,0.774c0.249,1.152,0.813,2.591,0.233,3.888c0.451,0.184,0.609,0.694,0.694,1.297
				c0.127,1.182-0.415,1.611-0.239,2.849c0.688-0.069,0.722,0.583,1.396,0.521c0.964-0.472,1.534-1.386,3.242-1.039
				c0.816-1.152,2.442-1.412,4.398-1.291c0.66,0.541,1.088,1.371,1.382,2.33c0.901-0.482,0.623,0.602,1.622,0
				c-0.009,0.685,0.085,1.475-0.232,1.813c1.48,0.963,2.355,1.019,4.635,1.042c0.584-0.469,1.016-1.119,1.854-1.313
				c-0.117-1.324,1.103-1.164,0.915-2.582c0.811-0.06,0.604-1.234,1.396-1.291c-0.267-0.92,0.397-1.471,0.461-2.334
				c0.127-1.58-0.444-3.201-0.688-4.662C190.816,159.388,190.44,160.495,190.231,159.731L190.231,159.731z"/>
		</g>
	</g>
	<g>
		<g>
			<defs>
				<path id="SVGID_75_" d="M111.493,255.787l36.255-62.792h72.512l-36.259-62.797l36.259-62.793h-22.513l-56.363,71.594
					l-16.354-38.241l-25.468,61.229l-17.779-51.729l-53.194,82.736h4.062h42.59L111.493,255.787L111.493,255.787z M197.747,67.405
					l-56.363,71.594l-16.354-38.241l-25.468,61.229l-17.779-51.729l-53.194,82.736H2.729l36.256-62.797L2.729,67.405h72.51
					l36.254-62.794l36.255,62.794h49.967H197.747L197.747,67.405z"/>
			</defs>
			<clipPath id="SVGID_76_">
				<use xlink:href="#SVGID_75_"  overflow="visible"/>
			</clipPath>
			<path clip-path="url(#SVGID_76_)" fill="#000066" d="M136.306,151.442c-0.408,0.756-0.764,1.563-0.934,2.592
				c-1.003,0.259-1.514,1.048-2.073,1.814c-0.188,0.896,0.334,1,0.228,1.811c-0.208,0.544-0.368,1.148-0.7,1.556
				c0.503,1.169-0.159,2.204,0.7,3.112c0.748,0.047,0.979-0.461,1.848-0.264c0.503-1.16,0.313-1.674,0.934-2.851
				c0-0.438,0-0.86,0-1.297c0.053-0.29,0.252-0.401,0.461-0.521c-0.422-1.135,0.425-2.207,0.474-4.144
				C136.369,153.269,137.263,151.327,136.306,151.442L136.306,151.442z"/>
		</g>
	</g>
	<g>
		<g>
			<defs>
				<path id="SVGID_77_" d="M111.493,255.787l36.255-62.792h72.512l-36.259-62.797l36.259-62.793h-22.513l-56.363,71.594
					l-16.354-38.241l-25.468,61.229l-17.779-51.729l-53.194,82.736h4.062h42.59L111.493,255.787L111.493,255.787z M197.747,67.405
					l-56.363,71.594l-16.354-38.241l-25.468,61.229l-17.779-51.729l-53.194,82.736H2.729l36.256-62.797L2.729,67.405h72.51
					l36.254-62.794l36.255,62.794h49.967H197.747L197.747,67.405z"/>
			</defs>
			<clipPath id="SVGID_78_">
				<use xlink:href="#SVGID_77_"  overflow="visible"/>
			</clipPath>
			<path clip-path="url(#SVGID_78_)" fill="#000066" d="M202.971,169.062c0.045-0.74,0.029-1.42-0.691-1.293
				c0,0.688,0,1.375,0,2.063c-0.188,0.763-1.104,0.679-0.93,1.823c1.557-0.256,0.531,0.771,0.461,1.553
				c1.464-0.077,1.518-1.77,2.092-2.852c0.344-0.391,0.963-0.467,1.146-1.043C204.493,168.515,204.068,169.158,202.971,169.062
				L202.971,169.062z"/>
		</g>
	</g>
	<g>
		<g>
			<defs>
				<path id="SVGID_79_" d="M111.493,255.787l36.255-62.792h72.512l-36.259-62.797l36.259-62.793h-22.513l-56.363,71.594
					l-16.354-38.241l-25.468,61.229l-17.779-51.729l-53.194,82.736h4.062h42.59L111.493,255.787L111.493,255.787z M197.747,67.405
					l-56.363,71.594l-16.354-38.241l-25.468,61.229l-17.779-51.729l-53.194,82.736H2.729l36.256-62.797L2.729,67.405h72.51
					l36.254-62.794l36.255,62.794h49.967H197.747L197.747,67.405z"/>
			</defs>
			<clipPath id="SVGID_80_">
				<use xlink:href="#SVGID_79_"  overflow="visible"/>
			</clipPath>
			<path clip-path="url(#SVGID_80_)" fill="#000066" d="M200.419,172.173c-0.193,0.543-0.69,0.764-0.685,1.547
				c-0.41-0.017-0.72,0.063-0.934,0.26c-0.393,0.521-0.537,1.301-1.153,1.551c-0.953,0.408-1.233,1.552-1.626,2.597
				c0.755-0.418,1.258-0.127,2.083,0c0.217-0.614,0.933-0.687,0.692-1.813c0.311,0,0.633,0,0.938,0
				c0.063-1.478,1.815-1.063,1.843-2.59C201.496,172.862,200.893,172.604,200.419,172.173L200.419,172.173z"/>
		</g>
	</g>
	<g>
		<g>
			<defs>
				<path id="SVGID_81_" d="M111.493,255.787l36.255-62.792h72.512l-36.259-62.797l36.259-62.793h-22.513l-56.363,71.594
					l-16.354-38.241l-25.468,61.229l-17.779-51.729l-53.194,82.736h4.062h42.59L111.493,255.787L111.493,255.787z M197.747,67.405
					l-56.363,71.594l-16.354-38.241l-25.468,61.229l-17.779-51.729l-53.194,82.736H2.729l36.256-62.797L2.729,67.405h72.51
					l36.254-62.794l36.255,62.794h49.967H197.747L197.747,67.405z"/>
			</defs>
			<clipPath id="SVGID_82_">
				<use xlink:href="#SVGID_81_"  overflow="visible"/>
			</clipPath>
			<path clip-path="url(#SVGID_82_)" fill="#000066" d="M184.679,172.94c-0.257,0.396,0.773,1.565,0.935,2.338
				c1.127-0.121,1.851-0.688,1.619-2.338C186.221,173.147,185.09,172.622,184.679,172.94L184.679,172.94z"/>
		</g>
	</g>
	<g>
		<g>
			<defs>
				<path id="SVGID_83_" d="M111.493,255.787l36.255-62.792h72.512l-36.259-62.797l36.259-62.793h-22.513l-56.363,71.594
					l-16.354-38.241l-25.468,61.229l-17.779-51.729l-53.194,82.736h4.062h42.59L111.493,255.787L111.493,255.787z M197.747,67.405
					l-56.363,71.594l-16.354-38.241l-25.468,61.229l-17.779-51.729l-53.194,82.736H2.729l36.256-62.797L2.729,67.405h72.51
					l36.254-62.794l36.255,62.794h49.967H197.747L197.747,67.405z"/>
			</defs>
			<clipPath id="SVGID_84_">
				<use xlink:href="#SVGID_83_"  overflow="visible"/>
			</clipPath>
			<path clip-path="url(#SVGID_84_)" fill="#000066" d="M79.815,180.972c0.309,0,0.621,0,0.93,0
				C80.903,179.952,79.778,180.13,79.815,180.972L79.815,180.972z"/>
		</g>
	</g>
	<g>
		<g>
			<defs>
				<path id="SVGID_85_" d="M111.493,255.787l36.255-62.792h72.512l-36.259-62.797l36.259-62.793h-22.513l-56.363,71.594
					l-16.354-38.241l-25.468,61.229l-17.779-51.729l-53.194,82.736h4.062h42.59L111.493,255.787L111.493,255.787z M197.747,67.405
					l-56.363,71.594l-16.354-38.241l-25.468,61.229l-17.779-51.729l-53.194,82.736H2.729l36.256-62.797L2.729,67.405h72.51
					l36.254-62.794l36.255,62.794h49.967H197.747L197.747,67.405z"/>
			</defs>
			<clipPath id="SVGID_86_">
				<use xlink:href="#SVGID_85_"  overflow="visible"/>
			</clipPath>
			
				<polyline clip-path="url(#SVGID_86_)" fill="none" stroke="#00FF00" stroke-width="8" stroke-linejoin="round" stroke-miterlimit="22.9256" points="
				25.193,198.276 81.783,110.259 99.562,161.985 125.03,100.758 141.384,138.999 183.264,85.798 			"/>
		</g>
	</g>
	<g>
		<g>
			<defs>
				<path id="SVGID_87_" d="M111.493,255.787l36.255-62.792h72.512l-36.259-62.797l36.259-62.793h-22.513l-56.363,71.594
					l-16.354-38.241l-25.468,61.229l-17.779-51.729l-53.194,82.736h4.062h42.59L111.493,255.787L111.493,255.787z M197.747,67.405
					l-56.363,71.594l-16.354-38.241l-25.468,61.229l-17.779-51.729l-53.194,82.736H2.729l36.256-62.797L2.729,67.405h72.51
					l36.254-62.794l36.255,62.794h49.967H197.747L197.747,67.405z"/>
			</defs>
			<clipPath id="SVGID_88_">
				<use xlink:href="#SVGID_87_"  overflow="visible"/>
			</clipPath>
			<path clip-path="url(#SVGID_88_)" fill="#00FF00" d="M197.792,67.345l-44.642,24.33c14.621,3.015,25.108,11.273,31.476,24.777
				L197.792,67.345L197.792,67.345z"/>
		</g>
	</g>
</g>
<g>
	<path fill="#00FF00" d="M13.248,200.673v-1.629h12.938v1.629h-5.544v9.418h-1.849v-9.418H13.248z"/>
	<path fill="#00FF00" d="M28.603,210.091v-11.047h1.804v11.047H28.603z"/>
	<path fill="#00FF00" d="M48.758,202.433l-5.391,8.076l-5.391-8.076l-2.816,7.658h-1.892l4.247-11.617l5.853,8.756l5.853-8.756
		l4.247,11.617h-1.892L48.758,202.433z"/>
	<path fill="#00FF00" d="M55.971,199.044h11.002v1.629h-9.131v2.816h7.679v1.65H57.82v3.322h9.153v1.629H55.971V199.044z"/>
</g>
<g>
	<path fill="#00FF00" d="M155.864,61.317c-2.134,0-4.269-0.506-5.368-1.254v-2.135c0.99,0.881,3.277,1.738,5.412,1.738
		c2.354,0,3.851-0.836,3.851-1.694c0-1.078-1.958-1.452-3.829-1.76c-2.64-0.396-5.721-0.946-5.721-3.543
		c0-2.2,2.861-3.146,5.479-3.146c1.871,0,3.896,0.374,4.842,1.078v1.959c-1.299-0.902-3.08-1.408-5.039-1.408
		c-1.057,0-3.322,0.308-3.322,1.54c0,1.21,2.002,1.54,4.004,1.87c2.597,0.396,5.502,0.902,5.502,3.257
		C161.674,60.371,158.768,61.317,155.864,61.317z"/>
	<path fill="#00FF00" d="M166.731,60.899h-1.826V49.853h6.755c2.024,0,4.291,0.727,4.291,3.081s-2.267,3.103-4.291,3.103h-4.929
		V60.899z M166.731,54.408h4.753c1.848,0,2.553-0.527,2.553-1.474s-0.705-1.452-2.553-1.452h-4.753V54.408z"/>
	<path fill="#00FF00" d="M187.72,57.533h-6.359l-2.156,3.366h-2.156l7.504-11.684l7.524,11.684h-2.179L187.72,57.533z
		 M182.396,55.926h4.29l-2.134-3.345L182.396,55.926z"/>
	<path fill="#00FF00" d="M200.568,59.645c2.178,0,4.115-0.836,5.259-2.223v2.354c-1.408,0.946-3.234,1.519-5.259,1.519
		c-4.334,0-7.833-2.663-7.833-5.941s3.499-5.963,7.833-5.963c2.024,0,3.851,0.594,5.259,1.54v2.377
		c-1.144-1.387-3.103-2.267-5.259-2.267c-3.256,0-5.896,1.914-5.896,4.313C194.672,57.731,197.312,59.645,200.568,59.645z"/>
	<path fill="#00FF00" d="M209.455,49.853h11.002v1.629h-9.132v2.816h7.679v1.649h-7.701v3.323h9.154v1.628h-11.002V49.853z"/>
</g>
</svg>
