<?xml version="1.0" encoding="UTF-8"?>
<!DOCTYPE svg PUBLIC "-//W3C//DTD SVG 1.1//EN" "http://www.w3.org/Graphics/SVG/1.1/DTD/svg11.dtd">
<!-- Creator: CorelDRAW X7 -->
<svg xmlns="http://www.w3.org/2000/svg" xml:space="preserve" width="1500px" height="1500px" version="1.1" style="shape-rendering:geometricPrecision; text-rendering:geometricPrecision; image-rendering:optimizeQuality; fill-rule:evenodd; clip-rule:evenodd"
viewBox="0 0 1500 1500"
 xmlns:xlink="http://www.w3.org/1999/xlink">
 <defs>
  <style type="text/css">
   <![CDATA[
    .fil0 {fill:none}
    .fil22 {fill:#BCBEC0}
    .fil19 {fill:white}
    .fil15 {fill:url(#id0)}
    .fil20 {fill:url(#id1)}
    .fil9 {fill:url(#id2)}
    .fil4 {fill:url(#id3)}
    .fil10 {fill:url(#id4)}
    .fil11 {fill:url(#id5)}
    .fil1 {fill:url(#id6)}
    .fil18 {fill:url(#id7)}
    .fil7 {fill:url(#id8)}
    .fil6 {fill:url(#id9)}
    .fil5 {fill:url(#id10)}
    .fil12 {fill:url(#id11)}
    .fil16 {fill:url(#id12)}
    .fil14 {fill:url(#id13)}
    .fil13 {fill:url(#id14)}
    .fil3 {fill:url(#id15)}
    .fil8 {fill:url(#id16)}
    .fil2 {fill:url(#id17)}
    .fil17 {fill:url(#id18)}
    .fil21 {fill:url(#id19)}
   ]]>
  </style>
  <linearGradient id="id0" gradientUnits="userSpaceOnUse" x1="560.23" y1="539.608" x2="480.013" y2="732.354">
   <stop offset="0" style="stop-opacity:1; stop-color:#A6A7A8"/>
   <stop offset="0.129412" style="stop-opacity:1; stop-color:#F2F5F5"/>
   <stop offset="0.180392" style="stop-opacity:1; stop-color:#D5D7D9"/>
   <stop offset="0.329412" style="stop-opacity:1; stop-color:#DADBDE"/>
   <stop offset="0.431373" style="stop-opacity:1; stop-color:#B9BBBD"/>
   <stop offset="0.54902" style="stop-opacity:1; stop-color:#989B9C"/>
   <stop offset="0.741176" style="stop-opacity:1; stop-color:#EEF1F5"/>
   <stop offset="0.890196" style="stop-opacity:1; stop-color:#B5B6BA"/>
   <stop offset="1" style="stop-opacity:1; stop-color:#6C6D70"/>
  </linearGradient>
  <linearGradient id="id1" gradientUnits="userSpaceOnUse" x1="434.519" y1="153.387" x2="1137.92" y2="1346.59">
   <stop offset="0" style="stop-opacity:1; stop-color:white"/>
   <stop offset="0.0588235" style="stop-opacity:1; stop-color:#E6E7E8"/>
   <stop offset="0.109804" style="stop-opacity:1; stop-color:#B9B9BA"/>
   <stop offset="0.168627" style="stop-opacity:1; stop-color:#B1B2B3"/>
   <stop offset="0.231373" style="stop-opacity:1; stop-color:#F5F6F7"/>
   <stop offset="0.270588" style="stop-opacity:1; stop-color:#CDCFD1"/>
   <stop offset="0.329412" style="stop-opacity:1; stop-color:#FAFDFF"/>
   <stop offset="0.380392" style="stop-opacity:1; stop-color:#DCE0E3"/>
   <stop offset="0.431373" style="stop-opacity:1; stop-color:#A1A1A6"/>
   <stop offset="0.490196" style="stop-opacity:1; stop-color:#DADEE3"/>
   <stop offset="0.54902" style="stop-opacity:1; stop-color:#939598"/>
   <stop offset="0.611765" style="stop-opacity:1; stop-color:#F5F8FF"/>
   <stop offset="0.74902" style="stop-opacity:1; stop-color:#BEC0C4"/>
   <stop offset="0.8" style="stop-opacity:1; stop-color:#ACAEB3"/>
   <stop offset="0.980392" style="stop-opacity:1; stop-color:#666466"/>
   <stop offset="1" style="stop-opacity:1; stop-color:#666466"/>
  </linearGradient>
  <linearGradient id="id2" gradientUnits="userSpaceOnUse" xlink:href="#id0" x1="1238.62" y1="353.661" x2="1070.73" y2="402.931">
  </linearGradient>
  <linearGradient id="id3" gradientUnits="userSpaceOnUse" xlink:href="#id0" x1="1039.25" y1="744.908" x2="971.301" y2="1039.61">
  </linearGradient>
  <linearGradient id="id4" gradientUnits="userSpaceOnUse" xlink:href="#id0" x1="571.55" y1="1067.36" x2="397.831" y2="1144.4">
  </linearGradient>
  <linearGradient id="id5" gradientUnits="userSpaceOnUse" x1="449.167" y1="1019.59" x2="610.989" y2="1019.59">
   <stop offset="0" style="stop-opacity:1; stop-color:#A6A7A8"/>
   <stop offset="1.66275" style="stop-opacity:1; stop-color:#898A8C"/>
   <stop offset="0.129412" style="stop-opacity:1; stop-color:#F2F5F5"/>
   <stop offset="0.180392" style="stop-opacity:1; stop-color:#D5D7D9"/>
   <stop offset="0.329412" style="stop-opacity:1; stop-color:#DADBDE"/>
   <stop offset="0.431373" style="stop-opacity:1; stop-color:#B9BBBD"/>
   <stop offset="0.54902" style="stop-opacity:1; stop-color:#989B9C"/>
   <stop offset="0.741176" style="stop-opacity:1; stop-color:#EEF1F5"/>
   <stop offset="0.890196" style="stop-opacity:1; stop-color:#B5B6BA"/>
   <stop offset="1" style="stop-opacity:1; stop-color:#6C6D70"/>
  </linearGradient>
  <linearGradient id="id6" gradientUnits="userSpaceOnUse" xlink:href="#id0" x1="1173.27" y1="969.893" x2="1056.51" y2="1022.28">
  </linearGradient>
  <linearGradient id="id7" gradientUnits="userSpaceOnUse" xlink:href="#id0" x1="590.365" y1="407.641" x2="168.55" y2="454.825">
  </linearGradient>
  <linearGradient id="id8" gradientUnits="userSpaceOnUse" x1="712.952" y1="1082.25" x2="925.975" y2="1004.06">
   <stop offset="0" style="stop-opacity:1; stop-color:#A6A7A8"/>
   <stop offset="2.57647" style="stop-opacity:1; stop-color:#898A8C"/>
   <stop offset="0.129412" style="stop-opacity:1; stop-color:#F2F5F5"/>
   <stop offset="0.180392" style="stop-opacity:1; stop-color:#D5D7D9"/>
   <stop offset="0.329412" style="stop-opacity:1; stop-color:#DADBDE"/>
   <stop offset="0.431373" style="stop-opacity:1; stop-color:#B9BBBD"/>
   <stop offset="0.54902" style="stop-opacity:1; stop-color:#989B9C"/>
   <stop offset="0.741176" style="stop-opacity:1; stop-color:#EEF1F5"/>
   <stop offset="0.890196" style="stop-opacity:1; stop-color:#B5B6BA"/>
   <stop offset="1" style="stop-opacity:1; stop-color:#6C6D70"/>
  </linearGradient>
  <linearGradient id="id9" gradientUnits="userSpaceOnUse" xlink:href="#id0" x1="623.923" y1="1147.25" x2="794.324" y2="1439.6">
  </linearGradient>
  <linearGradient id="id10" gradientUnits="userSpaceOnUse" xlink:href="#id0" x1="1201.29" y1="485.591" x2="1141.84" y2="656.378">
  </linearGradient>
  <linearGradient id="id11" gradientUnits="userSpaceOnUse" x1="735.555" y1="416.275" x2="913.975" y2="399.416">
   <stop offset="0" style="stop-opacity:1; stop-color:#A6A7A8"/>
   <stop offset="5.86275" style="stop-opacity:1; stop-color:#898A8C"/>
   <stop offset="0.129412" style="stop-opacity:1; stop-color:#F2F5F5"/>
   <stop offset="0.180392" style="stop-opacity:1; stop-color:#D5D7D9"/>
   <stop offset="0.329412" style="stop-opacity:1; stop-color:#DADBDE"/>
   <stop offset="0.431373" style="stop-opacity:1; stop-color:#B9BBBD"/>
   <stop offset="0.54902" style="stop-opacity:1; stop-color:#989B9C"/>
   <stop offset="0.741176" style="stop-opacity:1; stop-color:#EEF1F5"/>
   <stop offset="0.890196" style="stop-opacity:1; stop-color:#B5B6BA"/>
   <stop offset="1" style="stop-opacity:1; stop-color:#6C6D70"/>
  </linearGradient>
  <linearGradient id="id12" gradientUnits="userSpaceOnUse" xlink:href="#id0" x1="754.309" y1="33.2941" x2="659.313" y2="422.21">
  </linearGradient>
  <linearGradient id="id13" gradientUnits="userSpaceOnUse" xlink:href="#id0" x1="379.743" y1="839.425" x2="218.411" y2="1265.52">
  </linearGradient>
  <linearGradient id="id14" gradientUnits="userSpaceOnUse" xlink:href="#id0" x1="871.013" y1="259.131" x2="856.579" y2="412.025">
  </linearGradient>
  <linearGradient id="id15" gradientUnits="userSpaceOnUse" xlink:href="#id0" x1="888.844" y1="1125.33" x2="821.683" y2="1277.04">
  </linearGradient>
  <linearGradient id="id16" gradientUnits="userSpaceOnUse" xlink:href="#id0" x1="1042.83" y1="512.127" x2="973.097" y2="764.895">
  </linearGradient>
  <linearGradient id="id17" gradientUnits="userSpaceOnUse" xlink:href="#id0" x1="1179.26" y1="844.224" x2="1144.59" y2="994.241">
  </linearGradient>
  <linearGradient id="id18" gradientUnits="userSpaceOnUse" xlink:href="#id0" x1="301.09" y1="427.805" x2="239.105" y2="868.809">
  </linearGradient>
  <radialGradient id="id19" gradientUnits="userSpaceOnUse" gradientTransform="matrix(2.81934 -0 -0 2.81934 -1817 -390)" cx="998.688" cy="214.322" r="175.129" fx="998.688" fy="214.322">
   <stop offset="0" style="stop-opacity:1; stop-color:#27E3E1"/>
   <stop offset="0.458824" style="stop-opacity:1; stop-color:#1C75BC"/>
   <stop offset="1" style="stop-opacity:1; stop-color:#2B3990"/>
  </radialGradient>
 </defs>
 <g id="Layer_x0020_1">
  <metadata id="CorelCorpID_0Corel-Layer"/>
  <rect class="fil0" width="1500" height="1500"/>
  <g id="_2242543355872">
   <g>
    <polygon class="fil1" points="1005,990 1077,1027 1225,997 1164,965 "/>
   </g>
   <g>
    <polygon class="fil2" points="1099,841 1164,965 1225,997 1159,865 "/>
   </g>
   <g>
    <polygon class="fil3" points="791,1235 853,1290 920,1156 852,1112 "/>
   </g>
   <g>
    <polygon class="fil4" points="898,989 975,1048 1113,773 1024,737 "/>
   </g>
   <g>
    <polygon class="fil5" points="1092,632 1168,663 1252,496 1168,479 "/>
   </g>
   <g>
    <polygon class="fil6" points="567,1111 739,1361 851,1476 672,1211 "/>
   </g>
   <g>
    <polygon class="fil7" points="664,1033 729,1097 975,1048 898,989 "/>
   </g>
   <g>
    <polygon class="fil8" points="903,504 1025,737 1113,773 987,521 "/>
   </g>
   <g>
    <polygon class="fil9" points="906,373 1045,404 1403,379 1244,352 "/>
   </g>
   <g>
    <polygon class="fil10" points="358,1084 421,1159 611,1121 535,1053 "/>
   </g>
   <g>
    <polygon class="fil11" points="449,918 536,1054 611,1121 512,975 "/>
   </g>
   <g>
    <polygon class="fil12" points="717,401 787,423 933,412 853,393 "/>
   </g>
   <g>
    <polygon class="fil13" points="795,259 853,393 933,412 862,271 "/>
   </g>
   <g>
    <polygon class="fil14" points="155,1192 226,1309 443,872 351,796 "/>
   </g>
   <g>
    <polygon class="fil15" points="441,697 505,748 600,557 526,524 "/>
   </g>
   <g>
    <polygon class="fil16" points="549,396 662,432 865,24 732,26 "/>
   </g>
   <g>
    <polygon class="fil17" points="97,424 351,796 443,872 169,467 "/>
   </g>
   <g>
    <polygon class="fil18" points="97,424 169,467 662,432 549,396 "/>
   </g>
   <g>
    <path class="fil19" d="M1364 372l-324 22 -175 -370 -13 0 -205 403 -489 33 280 411 -218 428 6 10 432 -108 178 260 15 15 173 -354 332 -73 -143 -303 190 -367 -39 -7zm-511 -111l70 148 -137 9 67 -157zm-457 304l204 -19 -95 190 -109 -171zm25 583l80 -175 94 139 -174 36zm425 137l-66 -104 140 -36 -74 140zm122 -245l-256 48 -156 -244 170 -310 251 -18 126 251 -135 273zm246 -48l-147 29 82 -162 65 133zm-55 -326l-72 -153 165 -28 -93 181z"/>
   </g>
   <path class="fil20" d="M1045 404l-180 -380 -203 408 -493 35 274 405 -217 437 446 -98 179 265 173 -343 332 -73 -143 -302 190 -379 -358 25zm-183 -133l71 141 -146 11 75 -152zm-466 305l204 -19 -95 191 -109 -172zm25 583l91 -184 99 146 -190 38zm432 131l-67 -104 134 -30 -67 134zm122 -242l-246 49 -156 -244 153 -308 261 -24 126 252 -138 275zm250 -51l-148 30 82 -162 66 132zm-57 -334l-72 -152 156 -15 -84 167z"/>
   <path class="fil21" d="M1035 422l-171 -360 -191 386 -473 33 263 390 -206 414 423 -93 169 251 163 -324 320 -71 -138 -291 181 -359 -340 24zm-173 -188l97 194 -200 14 103 -208zm-496 328l262 -24 -121 244 -141 -220zm24 620l120 -241 129 191 -249 50zm465 142l-96 -149 192 -43 -96 192zm131 -261l-265 53 -167 -262 161 -325 282 -26 135 270 -146 290zm264 -54l-204 41 113 -223 91 182zm-83 -308l-97 -205 210 -20 -113 225z"/>
   <g>
    <polygon class="fil22" points="377,1176 390,1182 510,941 497,935 "/>
    <polygon class="fil22" points="1267,470 1057,490 1154,696 1167,701 1070,496 1280,476 "/>
    <polygon class="fil22" points="702,524 541,848 708,1110 721,1116 554,854 715,529 997,503 984,497 "/>
    <polygon class="fil22" points="746,436 759,442 862,234 849,228 "/>
    <polygon class="fil22" points="615,532 353,556 494,776 507,782 366,562 628,538 "/>
    <polygon class="fil22" points="1358,399 1181,752 1319,1042 999,1113 840,1429 849,1443 1012,1119 1332,1048 1194,757 1375,398 "/>
    <polygon class="fil22" points="262,1276 257,1285 680,1192 667,1186 "/>
    <polygon class="fil22" points="859,73 1022,416 1035,422 864,62 "/>
    <polygon class="fil22" points="746,1169 842,1318 855,1324 759,1175 951,1132 938,1126 "/>
    <polygon class="fil22" points="1033,1044 1046,1050 1159,827 1146,821 "/>
   </g>
   <g>
    <polygon class="fil19" points="1240,398 1194,333 1231,404 1166,450 1236,413 1283,478 1246,407 1311,361 "/>
    <g>
     <polygon class="fil19" points="1274,259 1231,394 1092,370 1227,413 1203,552 1245,417 1385,441 1250,399 "/>
    </g>
   </g>
   <g>
    <polygon class="fil19" points="305,604 335,696 248,737 339,708 381,794 351,703 438,661 347,691 "/>
    <g>
     <polygon class="fil19" points="414,533 337,684 177,628 328,705 272,866 349,714 509,770 358,693 "/>
    </g>
   </g>
   <g>
    <polygon class="fil19" points="1025,1126 1004,1082 1019,1128 975,1149 1022,1134 1043,1178 1028,1132 1072,1111 "/>
    <g>
     <polygon class="fil19" points="1060,1045 1020,1122 939,1094 1016,1133 987,1215 1026,1138 1108,1166 1031,1127 "/>
    </g>
   </g>
  </g>
 </g>
</svg>
