<?xml version="1.0" encoding="utf-8"?>
<!-- Generator: Adobe Illustrator 16.0.0, SVG Export Plug-In . SVG Version: 6.00 Build 0)  -->
<!DOCTYPE svg PUBLIC "-//W3C//DTD SVG 1.1//EN" "http://www.w3.org/Graphics/SVG/1.1/DTD/svg11.dtd">
<svg version="1.1" id="Layer_1" xmlns="http://www.w3.org/2000/svg" xmlns:xlink="http://www.w3.org/1999/xlink" x="0px" y="0px"
	 width="300px" height="300px" viewBox="0 0 300 300" enable-background="new 0 0 300 300" xml:space="preserve">
<g>
	<path fill="#0038B8" d="M149.566,276.252l5.755,3.321L270.625,79.869H28.51l121.057,209.672l5.755-9.968L149.566,276.252
		l5.755-3.32L51.526,93.157h196.08L143.812,272.932L149.566,276.252l5.755-3.32L149.566,276.252z M149.566,23.265l-5.755-3.323
		L28.508,219.65h242.117L149.566,9.976l-5.755,9.965L149.566,23.265l-5.755,3.323l103.794,179.771H51.526L155.321,26.587
		L149.566,23.265l-5.755,3.323L149.566,23.265z"/>
	<polygon fill="#FFFF00" points="115.264,87.79 149.566,28.377 184.607,89.066 254.688,89.066 220.387,148.478 224.811,151.034 
		263.542,83.956 187.559,83.956 149.566,18.152 110.836,85.232 	"/>
	<polygon fill="#CCFFCC" points="112.869,210.138 44.262,210.138 79.304,149.446 44.264,88.751 112.867,88.755 112.867,83.644 
		35.409,83.641 73.401,149.446 35.407,215.251 112.869,215.251 	"/>
	<polygon fill="#00FFFF" points="220.387,150.725 254.688,210.138 184.607,210.138 149.566,270.825 115.266,211.416 
		110.838,213.973 149.566,281.046 187.559,215.251 263.542,215.251 224.811,148.167 	"/>
	<path fill-rule="evenodd" clip-rule="evenodd" fill="#010101" d="M101.452,133.613l0.02,9.872c1.636-0.977,5.066-2.471,7.273-2.013
		c2.775,0.578,4.936,1.326,7.349,2.474c4.038,1.918,9.059,4.479,13.75,5.746c4.91,1.331,11.285,2.635,16.837,2.747
		c5.425,0.105,13.462,0.12,17.671-1.838c-0.162,0.726-2.831,2.952-3.416,3.508c-1.19,1.12-2.233,2.155-3.674,3.508l-8.981,8.678
		c-6.997,6.643-17.439,12.116-27.271,12.053c-4.563-0.028-8.081-1.05-10.5-3.973c-7.638-9.242,9.756-15.138,10.636-8.101
		c-1.426-0.493-2.515-1.359-4.706-0.775c-1.426,0.374-2.71,1.282-3.12,2.797c-1.881,6.952,11.126,9.171,11.776,0.676
		c0.269-3.486-1.811-6.474-4.024-7.84c-9.154-5.67-21.289,4.875-15.124,14.32c5.653,8.657,18.971,7.178,27.243,4.522
		c8.913-2.867,15.101-8.509,21.141-14.616c1.884-1.909,3.948-4.058,5.931-5.974c1.849-1.789,4.068-3.896,6.104-5.804
		c1.519-1.423,4.483-5.6,7.009-5.068c1.528,0.955,1.099,20.389,1.321,24.869c0.056,1.092-0.053,7.438,0.528,8.403
		c1.066-0.937,2.215-4.84,3.166-6.917c2.469-5.375,3.99-8.51,7.474-13.095c1.067-1.402,4.216-3.847,4.698-5.438
		c-4.479-0.057-5.139,1.719-10.02,0.141c-0.62-0.028-0.473-0.112-0.814-0.268l-2.645-2.381c-0.243-0.535-0.507-3.881-0.391-4.73
		c1.099-7.893,16.782-7.604,21.075-10.351c-0.965-0.674-9.446-2.74-11.422-3.434l-11.341-3.856
		c-15.785-5.942-21.107-6.623-37.8-2.752c-1.979,0.458-4.151,0.981-6.028,1.613c-0.945,0.317-2.014,0.549-2.859,0.817l-8.918,2.575
		c-3.587,1.074-8.821,2.854-12.463,2.184C102.294,135.036,103.403,134.357,101.452,133.613z"/>
	<path fill-rule="evenodd" clip-rule="evenodd" fill="#FDFDFD" d="M114.068,140.261c1.12,1.305,13.447,5.42,15.928,6.202
		c5.861,1.849,12.928,2.642,19.764,2.659c11.197,0.028,17.145-1.874,26.943-6.354c1.733-0.792,6.686-2.692,7.78-3.515
		c-3.543-1.296-17.631-6.662-20.663-6.146c2.472,4.894-1.931,14.035-10.989,13.466c-3.369-0.213-6.505-2.279-8.123-4.741
		c-0.782-1.188-1.627-2.752-1.874-4.48c-0.391-2.724,0.308-3.375,1.055-5.186C141.517,131.956,115.378,139.211,114.068,140.261z"/>
	<path fill-rule="evenodd" clip-rule="evenodd" fill="#010101" d="M100.6,127.527c2.228,3.46,8.292,3.677,12.174,3.265
		c3.996-0.424,8.822-1.886,12.531-3.05c1.981-0.62,4.165-1.173,6.075-1.736c0.94-0.275,2.194-0.592,3.119-0.786
		c5.787-1.213,12.787-2.405,19.022-2.564l0.018,0.018l-0.226-0.018c4.572,0.109,7.809,0.563,11.683,1.722
		c6.636,1.986,14.493,4.503,21.263,5.656c2.116,0.361,10.749,1.678,12.32,0.37l-8.841-1.958c-5.483-1.442-8.28-2.449-13.796-4.506
		c-6.674-2.486-16.184-6.496-23.079-6.343l-0.067-0.053l0.067,0.053c-0.289-0.643-12.588,1.483-15.041,2.106
		C123.431,123.353,116.639,129.076,100.6,127.527z"/>
</g>
</svg>
